<svg data-name="Слой 1" xmlns="http://www.w3.org/2000/svg" viewBox="0 0 114 50">
    <defs>
        <style>.cls-1{fill:none;stroke:#939598;stroke-linecap:round;stroke-width:1.5px;}</style>
    </defs>
    <path class="cls-1"
          d="M89.8,42.22H75.42V11.31H88.88a4.46,4.46,0,0,1,4,2.85l1.78,5.3a7.18,7.18,0,0,0,3.76,3.91l8.3,3.15a4.36,4.36,0,0,1,2.65,2.88l1.78,6.19"/>
    <path class="cls-1"
          d="M107.32,35.59h3.79A1.38,1.38,0,0,1,112.49,37v2.4a1.38,1.38,0,0,1-1.38,1.38h-3.79a1.38,1.38,0,0,1-1.38-1.38V37A1.38,1.38,0,0,1,107.32,35.59Z"/>
    <path class="cls-1" d="M103.68,42.6a6,6,0,1,1-6-6A6,6,0,0,1,103.68,42.6Z"/>
    <path class="cls-1" d="M39.93,42.6a6,6,0,1,1-6-6A6,6,0,0,1,39.93,42.6Z"/>
    <path class="cls-1" d="M105.94,39.37h-3.21"/>
    <polygon class="cls-1" points="2.83 36.64 75.42 36.64 75.42 34.29 2.83 34.29 2.83 36.64"/>
    <path class="cls-1" d="M8.88,40.38V36.64"/>
    <polyline class="cls-1" points="26.11 42.23 12.4 42.23 12.4 36.64"/>
    <path class="cls-1" d="M29.2,36.64c-2.18,1.55-3.1,3.74-3.1,7.11"/>
    <path class="cls-1" d="M92.9,36.38c-2.18,1.79-3.1,4-3.1,7.37"/>
    <path class="cls-1" d="M39.93,42.22H75.42"/>
    <path class="cls-1" d="M75.42,11.31V3s10.88.37,15.95,8.29"/>
    <path class="cls-1" d="M109.33,29.39h-2.5a.73.73,0,0,0-.71.87l.33,1.61a.73.73,0,0,0,.71.58h3"/>
    <path class="cls-1" d="M77.73,11.31v8.09a2.38,2.38,0,0,0,2.38,2.38H95.59"/>
    <polyline class="cls-1" points="87.89 11.31 91.16 21.78 91.16 38"/>
    <path class="cls-1" d="M95,29h1.9"/>
    <polygon class="cls-1" points="1.14 34.29 72.7 34.29 72.7 1.36 1.14 1.36 1.14 34.29"/>
</svg>