<svg data-name="Слой 1" xmlns="http://www.w3.org/2000/svg" viewBox="0 0 131 53">
    <defs>
        <style>.cls-1{fill:none;stroke:#939598;stroke-linecap:round;stroke-width:1.5px;}</style>
    </defs>
    <path class="cls-1"
          d="M124.95,39.35h3.67a1.34,1.34,0,0,1,1.34,1.34V43a1.34,1.34,0,0,1-1.34,1.34h-3.67A1.34,1.34,0,0,1,123.61,43V40.69A1.34,1.34,0,0,1,124.95,39.35Z"/>
    <path class="cls-1" d="M121.42,46.13a5.76,5.76,0,1,1-5.76-5.76A5.76,5.76,0,0,1,121.42,46.13Z"/>
    <path class="cls-1" d="M49.43,46.13a5.76,5.76,0,1,1-5.76-5.76A5.76,5.76,0,0,1,49.43,46.13Z"/>
    <path class="cls-1" d="M123.61,43H120.5"/>
    <polygon class="cls-1" points="2.47 40.37 109.49 40.37 109.49 38.09 2.47 38.09 2.47 40.37"/>
    <path class="cls-1" d="M8.33,44V40.37"/>
    <polyline class="cls-1" points="36.05 45.77 11.74 45.77 11.74 40.37"/>
    <path class="cls-1" d="M39.05,40.37c-2.11,1.5-3,3.62-3,6.89"/>
    <path class="cls-1" d="M111,40.12c-2.11,1.73-3,3.87-3,7.14"/>
    <path class="cls-1" d="M49.43,45.77h58.41"/>
    <path class="cls-1" d="M106.71,12.8v-8s10.53.36,15.44,8"/>
    <path class="cls-1"
          d="M128.75,39.35V35.1a66.19,66.19,0,0,0-2-16.12l-.84-3.37a3.72,3.72,0,0,0-3.61-2.82H106.7V38.09"/>
    <path class="cls-1"
          d="M128.26,27h0a27.24,27.24,0,0,1-7.85-1.15l-1.92-.58a4,4,0,0,1-2.84-3.82V17a1,1,0,0,1,1-1h9.3"/>
    <polyline class="cls-1" points="128.74 33.87 126.78 33.87 126.78 37.01 128.75 37.01"/>
    <path class="cls-1" d="M109.49,12.8V41.7"/>
    <path class="cls-1" d="M123.61,16a52,52,0,0,1,1.72,10.88"/>
    <polygon class="cls-1" points="0.83 38.09 104.07 38.09 104.07 1.3 0.83 1.3 0.83 38.09"/>
</svg>