<svg xmlns="http://www.w3.org/2000/svg" width="78" height="79" viewBox="0 0 78 79">
    <g fill="none" fill-rule="evenodd" stroke-linecap="round" stroke-linejoin="round" stroke-width="3">
        <path stroke="#9B9B9B" d="M41.365 71.087l34.228-15.798V17.901L41.365 33.699zM7.136 33.172V17.901l34.229 15.798"/>
        <path stroke="#9B9B9B" d="M64.138 54.188l6.352-2.932V43.31M7.136 17.9L41.365 2.104l34.228 15.798"/>
        <path stroke="#F47920" d="M24.25 10.002L58.48 25.8v7.899"/>
        <path stroke="#ADD037" d="M16.615 39.228s2.37 3.686 6.845 5.266c4.477 1.58 8.163 1.58 8.163 1.58s-.264 25.013-15.008 30.542C1.87 71.087 1.607 46.074 1.607 46.074s3.686 0 8.162-1.58c4.476-1.58 6.846-5.266 6.846-5.266z"/>
    </g>
</svg>
