<svg xmlns="http://www.w3.org/2000/svg" viewBox="0 0 84.97 22.54"><title>creator</title><path d="M71.32,12.78H69.95V6.85a1.77,1.77,0,0,0-2-2H65.77v7.93H63.14V6.85a1.77,1.77,0,0,0-2-2H59v7.93H56.35V6.85c0-1.46-1.92-3.17-4.63-1.81.22.28.46.45.46,1.93v9.43H69.45a13.11,13.11,0,0,1-1.64,1.86c-1.92,2.1-.27,4.87,2.24,4.16-.68-2,6.41-4.74,1.26-9.65Zm9-.4a.72.72,0,0,1-.15.43,1.85,1.85,0,0,1-.39.38,2.85,2.85,0,0,1-1.47.44,1.53,1.53,0,0,1-1-.31,1,1,0,0,1-.38-.79,1.13,1.13,0,0,1,.5-.94,2.09,2.09,0,0,1,1.28-.37,4.11,4.11,0,0,1,.79.09,6,6,0,0,1,.81.22v.86Zm4.18,2.35V9.55c0-1.64-1.14-5.72-6.58-4.91-2.24.33-4.19,1.72-4.44,4.07,2.4-1.32,5.4-1.32,6.36-.6a1.25,1.25,0,0,1,.48,1.29A5.4,5.4,0,0,0,78,9a6.7,6.7,0,0,0-2,.28,4.8,4.8,0,0,0-1.57.81,3.82,3.82,0,0,0-1,1.25,3.43,3.43,0,0,0-.37,1.6,3.55,3.55,0,0,0,1.15,2.65,4,4,0,0,0,1.29.78,4.46,4.46,0,0,0,1.6.29,4.66,4.66,0,0,0,2.15-.52,5.28,5.28,0,0,0,1.78-1.51L81,15a1.89,1.89,0,0,0,.76,1.2,3,3,0,0,0,1.7.41,2.66,2.66,0,0,0,1.47-.4A2.16,2.16,0,0,1,84.47,14.73ZM45.08,13.11a2.12,2.12,0,0,1-2-2.26c0-1.28,1.44-1.76,2-1.76s2,.34,2,1.76C47.13,12.88,45.69,13.11,45.08,13.11Zm1.23-7.32c-.86.06-2.88.49-3.72,1.56.08-3.19,3.52-2.73,5.7-2.82C51.15,4.4,51.94,1.28,49.66,0c-1,1.91-8.7-.72-10.52,6.16a14.69,14.69,0,0,0-.38,3.66,7.22,7.22,0,0,0,1.61,5.08,6.12,6.12,0,0,0,4.72,1.74c3.92,0,6.21-2.53,6.33-5.78C51.44,10.16,51.29,5.47,46.32,5.79Zm-13,6.66a2,2,0,0,1-2.95,0,2.7,2.7,0,0,1-.57-1.82,2.71,2.71,0,0,1,.57-1.82,2,2,0,0,1,2.95,0,2.7,2.7,0,0,1,.57,1.82A2.7,2.7,0,0,1,33.32,12.45Zm3.24-6a5.9,5.9,0,0,0-2-1.32,7.78,7.78,0,0,0-5.46,0,5.91,5.91,0,0,0-2,1.32,5.42,5.42,0,0,0-1.21,1.91,6.54,6.54,0,0,0,0,4.55,5.43,5.43,0,0,0,1.21,1.91,5.94,5.94,0,0,0,2,1.32,7.76,7.76,0,0,0,5.46,0,5.94,5.94,0,0,0,2-1.32,5.46,5.46,0,0,0,1.21-1.91,6.59,6.59,0,0,0,0-4.55,5.45,5.45,0,0,0-1.21-1.91Zm-16.46,6a2,2,0,0,1-2.95,0,2.69,2.69,0,0,1-.57-1.82,2.7,2.7,0,0,1,.57-1.82,2,2,0,0,1,2.94,0,2.7,2.7,0,0,1,.57,1.82A2.69,2.69,0,0,1,20.1,12.45Zm3.24-6a5.9,5.9,0,0,0-2-1.32,7,7,0,0,0-2.72-.49,7,7,0,0,0-2.74.49,6,6,0,0,0-2,1.32,5.44,5.44,0,0,0-1.2,1.91,6.56,6.56,0,0,0,0,4.55,5.45,5.45,0,0,0,1.21,1.91,6,6,0,0,0,2,1.32,7,7,0,0,0,2.74.5,7,7,0,0,0,2.72-.5,5.92,5.92,0,0,0,2-1.32,5.44,5.44,0,0,0,1.21-1.91,6.56,6.56,0,0,0,0-4.55A5.43,5.43,0,0,0,23.34,6.44ZM10.67,6.28A6,6,0,0,0,6.56,4.63c-5.18,0-6.56,3.7-6.56,6A6.28,6.28,0,0,0,.42,12.9a5.54,5.54,0,0,0,1.22,1.91,5.94,5.94,0,0,0,2,1.32,7,7,0,0,0,2.73.5A5,5,0,0,0,11.58,12a7.56,7.56,0,0,1-5.25,1.14,2.41,2.41,0,0,1-2-2.48A2.32,2.32,0,0,1,6.63,8.3c1,0,2.22.83,1.88,2.68C10.92,11.83,13.15,8.9,10.67,6.28Z" fill="#d1d3d4"/></svg>