<svg xmlns="http://www.w3.org/2000/svg" viewBox="0 0 270.01 126.85"><title>furnitureconstruct</title><polyline points="95.56 119.11 95.56 1 147.58 1 147.58 119.11" fill="none" stroke="#939598" stroke-linecap="round" stroke-linejoin="round" stroke-width="2"/><polygon points="147.58 119.11 199.6 119.11 199.6 1 147.58 1 147.58 119.11" fill="none" stroke="#939598" stroke-linecap="round" stroke-linejoin="round" stroke-width="2"/><path d="M136.57,58.13V75.45" fill="none" stroke="#939598" stroke-linecap="round" stroke-linejoin="round" stroke-width="2"/><polygon points="269.01 125.85 216.99 125.85 206.11 7.73 258.13 7.73 269.01 125.85" fill="none" stroke="#939598" stroke-linecap="round" stroke-linejoin="round" stroke-width="2"/><path d="M218.1,58.13l1.59,17.31" fill="none" stroke="#939598" stroke-linecap="round" stroke-linejoin="round" stroke-width="2"/><path d="M147.58,23.23h52" fill="none" stroke="#939598" stroke-linecap="round" stroke-linejoin="round" stroke-width="2"/><path d="M147.58,30h52" fill="none" stroke="#939598" stroke-linecap="round" stroke-linejoin="round" stroke-width="2"/><polygon points="147.58 95.55 173.59 95.55 173.59 89.64 147.58 89.64 147.58 95.55" fill="none" stroke="#939598" stroke-linecap="round" stroke-linejoin="round" stroke-width="2"/><polygon points="147.58 101.47 173.59 101.47 173.59 95.55 147.58 95.55 147.58 101.47" fill="none" stroke="#939598" stroke-linecap="round" stroke-linejoin="round" stroke-width="2"/><path d="M147.58,101.47h52" fill="none" stroke="#939598" stroke-linecap="round" stroke-linejoin="round" stroke-width="2"/><path d="M173.59,101.47V30" fill="none" stroke="#939598" stroke-linecap="round" stroke-linejoin="round" stroke-width="2"/><path d="M102.29,125.85v-5.77" fill="none" stroke="#939598" stroke-linecap="round" stroke-linejoin="round" stroke-width="2"/><path d="M192.87,125.85v-6.73" fill="none" stroke="#939598" stroke-linecap="round" stroke-linejoin="round" stroke-width="2"/><path d="M82.4,125.85,95.56,73.52" fill="none" stroke="#939598" stroke-linecap="round" stroke-linejoin="round" stroke-width="2"/><path d="M78.73,125.85,91.89,73.52" fill="none" stroke="#939598" stroke-linecap="round" stroke-linejoin="round" stroke-width="2"/><path d="M75.06,125.85,88.22,73.52" fill="none" stroke="#939598" stroke-linecap="round" stroke-linejoin="round" stroke-width="2"/><polygon points="142.48 125.85 95.56 119.11 95.56 1 142.48 7.73 142.48 125.85" fill="none" stroke="#939598" stroke-linecap="round" stroke-linejoin="round" stroke-width="2"/><polyline points="65.19 86.75 77.26 105.56 65.19 105.56" fill="none" stroke="#939598" stroke-linecap="round" stroke-linejoin="round" stroke-width="2"/><polygon points="65.19 125.44 33.84 125.44 33.84 86.75 65.19 86.75 65.19 125.44" fill="none" stroke="#939598" stroke-linecap="round" stroke-linejoin="round" stroke-width="2"/><polygon points="53.01 93.62 46.03 93.62 46.03 86.75 53.01 86.75 53.01 93.62" fill="none" stroke="#939598" stroke-linecap="round" stroke-linejoin="round" stroke-width="2"/><polyline points="13.01 105.56 13.01 125.44 33.84 125.44 33.84 86.75" fill="none" stroke="#939598" stroke-linecap="round" stroke-linejoin="round" stroke-width="2"/><polygon points="1 105.56 21.84 105.56 33.84 86.75 13.01 86.75 1 105.56" fill="none" stroke="#939598" stroke-linecap="round" stroke-linejoin="round" stroke-width="2"/><path d="M147.58,119.12h-5.1" fill="none" stroke="#939598" stroke-linecap="round" stroke-linejoin="round" stroke-width="2"/></svg>