<svg xmlns="http://www.w3.org/2000/svg" width="78" height="75" viewBox="0 0 78 75">
    <g fill="none" fill-rule="evenodd" stroke-linecap="round" stroke-linejoin="round" stroke-width="3">
        <path stroke="#9B9B9B" d="M13.31 19.658H7.697a5.537 5.537 0 0 0-5.537 5.536v42.618a5.537 5.537 0 0 0 5.537 5.537h62.92a5.537 5.537 0 0 0 5.537-5.537V25.194a5.537 5.537 0 0 0-5.537-5.536H39.76M7.398 54.557h57.18M53.168 24.188v44.63"/>
        <path stroke="#F47920" d="M7.398 63.282h5.921c7.18 0 13.003-5.822 13.003-13.004v-3.775h15.1l9.397-9.396h13.758"/>
        <path stroke="#9B9B9B" d="M14.587 24.188H8.806c-.778 0-1.408.63-1.408 1.409V67.41c0 .778.63 1.409 1.408 1.409h54.362c.779 0 1.409-.63 1.409-1.409V25.597c0-.779-.63-1.41-1.409-1.41H38.102M70.16 47.405"/>
        <path stroke="#ADD037" d="M26.322 21.972a6.09 6.09 0 1 1-.001-12.179 6.09 6.09 0 0 1 .001 12.179zm0-19.64c-8.61 0-13.44 6.055-13.44 13.55 0 10.947 13.44 30.621 13.44 30.621s13.44-19.338 13.44-30.621c0-7.495-4.83-13.55-13.44-13.55z"/>
    </g>
</svg>
