<svg xmlns="http://www.w3.org/2000/svg" viewBox="0 0 31 31"><title>icon_compas</title><path d="M24.28,16.41a.91.91,0,1,1,0-1.82H26a10.64,10.64,0,0,0-9.68-9.68V6.67a.91.91,0,1,1-1.82,0V4.91a10.64,10.64,0,0,0-9.68,9.7H6.62a.91.91,0,0,1,0,1.82H4.86a10.64,10.64,0,0,0,9.7,9.67V24.33a.91.91,0,1,1,1.82,0v1.76A10.64,10.64,0,0,0,26,16.41H24.28ZM20.64,11s0,0,0,0v.21l0,0h0L18,17.45a.9.9,0,0,1-.2.29h0l0,0,0,0,0,0,0,0,0,0-.06,0h0l-6.09,2.6h0l-.06,0h0l-.08,0h-.37l-.08,0h0l-.06,0h0l-.07,0h0l-.06,0,0,0,0,0h0l-.06-.05h0l0,0v0l0,0v0l0-.07h0l0-.06h0l0,0V19.8s0,0,0,0,0,0,0,0,0,0,0,0,0,0,0,0v-.21l0,0h0l2.6-6.09h0v0l0-.06,0,0,0,0,0,0,0,0,0,0h0a.9.9,0,0,1,.29-.2l6.11-2.6h0l0,0H20l0,0h0l0,0,0,0,0,0,0,0,0,0,0,0,0,0,0,0,0,0,0,0,0,0,0,0,0,0,0,0v0h0l0,0v.21s0,0,0,0,0,0,0,0S20.64,11,20.64,11Z" fill="#d1d3d4"/><polygon points="13.92 15.2 12.72 18 15.52 16.8 13.92 15.2" fill="#d1d3d4"/><polygon points="15.19 13.91 16.81 15.53 18.01 12.71 15.19 13.91" fill="#d1d3d4"/><path d="M26.46,4.54A15.5,15.5,0,1,0,4.54,26.46,15.5,15.5,0,1,0,26.46,4.54Zm1.44,11h0A12.46,12.46,0,0,1,15.47,27.94h0A12.46,12.46,0,0,1,3,15.52H3a12.44,12.44,0,0,1,24.89,0h0Z" fill="#d1d3d4"/></svg>