<svg xmlns="http://www.w3.org/2000/svg" viewBox="0 0 30 30"><title>icon_mail</title><path d="M15,30A15,15,0,1,0,0,15,15,15,0,0,0,15,30Zm0-8.9c-2.55,0-7.8,0-7.87,0a.68.68,0,0,1-.55-.66s0-10.9,0-11a.68.68,0,0,1,.65-.54s15.58,0,15.67,0a.67.67,0,0,1,.51.61s0,10.94,0,11a.68.68,0,0,1-.64.54H15Zm0-5.39.11-.1,4.26-3.72,1.42-1.24s.08-.05.09-.1c-.15,0-11.67,0-11.78,0L15,15.71Zm5.77,4v0L16.71,16l-.1.08-.31.27-.81.71a.69.69,0,0,1-.95,0l-1.08-.95-.11-.09-.07,0-4,3.57h0v0ZM8,11.36a.7.7,0,0,0,0,.07V19H8l4.32-3.85Zm9.77,3.77L22,18.93l.07,0c0-.07,0-.12,0-.17V11.54s0-.06,0-.1a.47.47,0,0,0,0-.07Z" fill="#d1d3d4"/></svg>