<svg id="logo" xmlns="http://www.w3.org/2000/svg" xmlns:xlink="http://www.w3.org/1999/xlink" viewBox="0 0 160.07 47.33"><defs><style>.cls-1{fill:#fff;}.cls-2{fill:#231f1f;}.cls-3{fill:#f47920;}.cls-4{mask:url(#mask);}</style><mask id="mask" x="129.02" y="38.12" width="8.31" height="9.22" maskUnits="userSpaceOnUse"><g id="b"><path id="a" class="cls-1" d="M129,47.33h8.31V38.12H129Z"/></g></mask></defs><title>logo__mobile</title><g id="logo__text"><path class="cls-2" d="M22.74,38.12v8.25h1V39h4.35v7.34h1V38.12Zm19.14,0v8.25h4.93v-.91H42.87V42.54h3.68v-.86H42.87V39h3.81v-.86Zm20.63,4.74a1.94,1.94,0,0,0,0-3.88c-.75,0-1.54,0-2.33,0v3.88h2.33Zm-3.3,3.5V38.1c1.08,0,2.22,0,3.3,0a2.82,2.82,0,1,1,0,5.63H60.18v2.62h-1ZM82.29,39H78.48v2.7h3.68v.86H78.48v2.92h3.94v.91H77.49V38.12h4.8Z"/><path class="cls-3" d="M99.75,40h-3v1.18h2.76v1.89H96.76V44.4h3.1v2H94.6V38.12h5.15Zm12,.21c-.07-1.53,1.21-2.24,2.68-2.24a2.49,2.49,0,0,1,2.76,2.39,2,2,0,0,1-.73,1.53,2.1,2.1,0,0,1,1.2,2c0,1.46-1.06,2.59-3.22,2.59a2.66,2.66,0,0,1-3-2.84h1.88a1,1,0,0,0,1.11,1.06.95.95,0,1,0,0-1.87h-.64V41.15h.61a.75.75,0,0,0,.8-.74.74.74,0,0,0-.79-.74c-.39,0-.78.2-.78.54Z"/><g class="cls-4"><path class="cls-3" d="M132.31,43.56a1.56,1.56,0,0,1-.38,1h2.43V40h-1.67l-.38,3.59Zm-3,1c.64,0,.77-.28.86-1l.62-5.37h5.7v6.42h.82v2.79h-1.74v-1h-4.93v1H129V44.54Z"/></g><polygon class="cls-2" points="25.38 19.9 19.27 19.9 19.27 0.07 12.66 0.07 12.66 19.9 6.58 19.9 6.58 0.07 0 0.07 0 26.02 31.99 26.02 31.99 0.07 25.38 0.07 25.38 19.9"/><polygon class="cls-2" points="55.85 11.34 46.28 0 43.37 0 43.37 26.02 49.98 26.02 49.98 13.93 55.18 20.43 56.49 20.43 61.69 13.93 61.69 26.02 68.3 26.02 68.3 0 65.42 0 55.85 11.34"/><polygon class="cls-2" points="86.33 15.61 95.47 15.61 95.47 9.67 86.33 9.67 86.33 6.01 96.1 6.01 96.1 0.07 79.68 0.07 79.68 26.02 96.38 26.02 96.38 19.9 86.33 19.9 86.33 15.61"/><path class="cls-2" d="M108.47,18c-.27,2.31-.67,2.81-2.22,2.81a8.37,8.37,0,0,1-.91-.06l-.72-.08-.14,5.12.59.08a22.45,22.45,0,0,0,3.11.25c4.47,0,6.33-2.12,6.86-7.81l1.14-12.22h5.43V26h6.58V.07H110.36l-1.89,18Z"/><path class="cls-2" d="M152.79,19.19a3,3,0,0,1-2.17.85c-1.16,0-2.34,0-3.51,0H146V13.75h4.6a2.94,2.94,0,0,1,3,3.1,3.22,3.22,0,0,1-.87,2.34M150.65,7.77H146V.07h-6.47V26h11.07a9,9,0,0,0,9.42-9.18c0-4.51-3.24-9.07-9.42-9.07"/></g></svg>