<svg xmlns="http://www.w3.org/2000/svg" viewBox="0 0 170.53 159.39"><title>paceges</title><polyline points="37.81 123.86 30.61 121.33 30.61 85.25 43.06 89.63" fill="none" stroke="#939598" stroke-linecap="round" stroke-linejoin="round" stroke-width="2"/><polyline points="51.19 92.49 63.55 96.83 63.55 132.92 58.75 131.23" fill="none" stroke="#939598" stroke-linecap="round" stroke-linejoin="round" stroke-width="2"/><polyline points="63.55 132.92 96.49 121.33 96.49 85.25 63.55 96.83" fill="none" stroke="#939598" stroke-linecap="round" stroke-linejoin="round" stroke-width="2"/><polyline points="30.61 85.25 63.55 73.97 96.49 85.25" fill="none" stroke="#939598" stroke-linecap="round" stroke-linejoin="round" stroke-width="2"/><polygon points="76.02 78.29 43.08 89.57 43.08 99.5 51.14 102.56 51.14 92.63 83.96 80.96 76.02 78.29" fill="none" stroke="#f47920" stroke-linecap="round" stroke-linejoin="round" stroke-width="2"/><polyline points="130.43 138.26 143.8 142.96 143.8 94.8 134.15 91.4" fill="none" stroke="#939598" stroke-linecap="round" stroke-linejoin="round" stroke-width="2"/><polyline points="127.8 89.17 118.07 85.75 118.07 121.76" fill="none" stroke="#939598" stroke-linecap="round" stroke-linejoin="round" stroke-width="2"/><polyline points="143.8 142.96 169.53 133.91 169.53 85.75 143.8 94.8" fill="none" stroke="#939598" stroke-linecap="round" stroke-linejoin="round" stroke-width="2"/><polyline points="118.07 85.75 143.8 76.94 169.53 85.75" fill="none" stroke="#939598" stroke-linecap="round" stroke-linejoin="round" stroke-width="2"/><polygon points="153.54 80.31 127.81 89.12 127.81 96.88 134.1 99.28 134.1 91.52 159.75 82.4 153.54 80.31" fill="none" stroke="#f47920" stroke-linecap="round" stroke-linejoin="round" stroke-width="2"/><path d="M72.42,25.51c0,3-6.3,5.39-14.06,5.39S44.3,28.49,44.3,25.51s6.3-5.39,14.06-5.39S72.42,22.53,72.42,25.51Z" fill="none" stroke="#add037" stroke-linecap="round" stroke-linejoin="round" stroke-width="2"/><polyline points="125.74 38.58 143.8 32.23 143.8 12.44 125.74 18.79" fill="none" stroke="#939598" stroke-linecap="round" stroke-linejoin="round" stroke-width="2"/><path d="M72.42,25.51v8.92" fill="none" stroke="#add037" stroke-linecap="round" stroke-linejoin="round" stroke-width="2"/><path d="M44.3,25.51V80.56" fill="none" stroke="#add037" stroke-linecap="round" stroke-linejoin="round" stroke-width="2"/><polyline points="93.47 7.18 111.53 1 143.8 12.44" fill="none" stroke="#939598" stroke-linecap="round" stroke-linejoin="round" stroke-width="2"/><polyline points="84.13 44.81 96.49 49.16 96.49 85.25 63.55 73.66 63.55 37.58 76 41.95" fill="none" stroke="#939598" stroke-linecap="round" stroke-linejoin="round" stroke-width="2"/><path d="M96.49,129.26v-7.93" fill="none" stroke="#939598" stroke-linecap="round" stroke-linejoin="round" stroke-width="2"/><polyline points="96.49 49.16 143.8 31.98 143.8 76.94" fill="none" stroke="#939598" stroke-linecap="round" stroke-linejoin="round" stroke-width="2"/><path d="M63.55,37.57,93.47,27" fill="none" stroke="#939598" stroke-linecap="round" stroke-linejoin="round" stroke-width="2"/><polyline points="105.99 31.49 76.02 41.9 76.02 51.83 84.08 54.89 84.08 44.96 113.93 34.16" fill="none" stroke="#f47920" stroke-linecap="round" stroke-linejoin="round" stroke-width="2"/><polyline points="96.49 126.26 53.07 141.68 1 123.08 30.61 112.84" fill="none" stroke="#939598" stroke-linecap="round" stroke-linejoin="round" stroke-width="2"/><polyline points="1 127.28 53.07 145.88 81.95 135.63" fill="none" stroke="#939598" stroke-linecap="round" stroke-linejoin="round" stroke-width="2"/><polyline points="1 131.49 53.07 150.09 82.11 139.78" fill="none" stroke="#939598" stroke-linecap="round" stroke-linejoin="round" stroke-width="2"/><polyline points="111.36 13.65 125.74 18.79 125.74 38.58 93.47 26.97 93.47 7.18 106.94 11.97" fill="none" stroke="#939598" stroke-linecap="round" stroke-linejoin="round" stroke-width="2"/><polyline points="1 135.69 53.07 154.29 77.64 145.57" fill="none" stroke="#939598" stroke-linecap="round" stroke-linejoin="round" stroke-width="2"/><path d="M138.89,48.32,128.4,52.13" fill="none" stroke="#939598" stroke-linecap="round" stroke-linejoin="round" stroke-width="2"/><polygon points="125.01 5.79 106.94 11.97 106.94 17.41 111.36 19.09 111.36 13.65 129.36 7.25 125.01 5.79" fill="none" stroke="#f47920" stroke-linecap="round" stroke-linejoin="round" stroke-width="2"/><path d="M138.89,43.19l-21,7.62" fill="none" stroke="#939598" stroke-linecap="round" stroke-linejoin="round" stroke-width="2"/><path d="M62.81,25.51c0,.94-2,1.71-4.45,1.71s-4.45-.76-4.45-1.71,2-1.71,4.45-1.71S62.81,24.57,62.81,25.51Z" fill="none" stroke="#939598" stroke-linecap="round" stroke-linejoin="round" stroke-width="2"/><path d="M81.62,142.51c2.24,1,4,4.5,4,7.8s-1.81,5.15-4,4.14-4-4.5-4-7.8S79.38,141.5,81.62,142.51Z" fill="none" stroke="#add037" stroke-linecap="round" stroke-linejoin="round" stroke-width="2"/><path d="M81.62,146.59a2.84,2.84,0,0,1,1.28,2.47c0,1-.57,1.63-1.28,1.31a2.84,2.84,0,0,1-1.28-2.47C80.34,146.85,80.91,146.27,81.62,146.59Z" fill="none" stroke="#939598" stroke-linecap="round" stroke-linejoin="round" stroke-width="2"/><path d="M58.75,130c0,1.32-2.79,2.39-6.24,2.39s-6.24-1.07-6.24-2.39,2.79-2.39,6.24-2.39S58.75,128.7,58.75,130Z" fill="none" stroke="#f47920" stroke-linecap="round" stroke-linejoin="round" stroke-width="2"/><path d="M53.29,130c0,.16-.35.3-.78.3s-.78-.13-.78-.3.35-.3.78-.3S53.29,129.87,53.29,130Z" fill="none" stroke="#939598" stroke-linecap="round" stroke-linejoin="round" stroke-width="2"/><path d="M46.27,130v5.8c0,1.32,2.79,2.39,6.24,2.39s6.24-1.07,6.24-2.39V130" fill="none" stroke="#f47920" stroke-linecap="round" stroke-linejoin="round" stroke-width="2"/><polyline points="49.58 137.93 50.93 136.68 49.74 135.02 50.71 133.82 49.48 132.11" fill="none" stroke="#f47920" stroke-linecap="round" stroke-linejoin="round" stroke-width="2"/><path d="M47.08,125.92c0,1.32-2.79,2.39-6.24,2.39s-6.24-1.07-6.24-2.39,2.79-2.39,6.24-2.39S47.08,124.6,47.08,125.92Z" fill="none" stroke="#f47920" stroke-linecap="round" stroke-linejoin="round" stroke-width="2"/><path d="M41.59,125.92c0,.16-.34.29-.75.29s-.75-.13-.75-.29.34-.29.75-.29S41.59,125.76,41.59,125.92Z" fill="none" stroke="#939598" stroke-linecap="round" stroke-linejoin="round" stroke-width="2"/><path d="M34.6,125.92v5.8c0,1.32,2.79,2.39,6.24,2.39s6.24-1.07,6.24-2.39v-5.8" fill="none" stroke="#f47920" stroke-linecap="round" stroke-linejoin="round" stroke-width="2"/><polyline points="37.91 133.84 39.26 132.59 38.07 130.93 39.04 129.72 37.81 128.01" fill="none" stroke="#f47920" stroke-linecap="round" stroke-linejoin="round" stroke-width="2"/><path d="M79.66,142.35l2.29-.7" fill="none" stroke="#f47920" stroke-linecap="round" stroke-linejoin="round" stroke-width="2"/><path d="M89.85,146.19c2.24,1,4,4.5,4,7.8s-1.81,5.15-4,4.14-4-4.5-4-7.8S87.62,145.17,89.85,146.19Z" fill="none" stroke="#add037" stroke-linecap="round" stroke-linejoin="round" stroke-width="2"/><path d="M89.85,150.27a2.84,2.84,0,0,1,1.28,2.47c0,1-.57,1.63-1.28,1.31a2.84,2.84,0,0,1-1.28-2.47C88.57,150.53,89.15,149.95,89.85,150.27Z" fill="none" stroke="#939598" stroke-linecap="round" stroke-linejoin="round" stroke-width="2"/><path d="M87.9,146l36.94-13a2.61,2.61,0,0,1,2,.15c2.24,1,4,4.5,4,7.8,0,2.23-.85,3.8-2.08,4.27l-37,13.06" fill="none" stroke="#add037" stroke-linecap="round" stroke-linejoin="round" stroke-width="2"/><path d="M86,133.92c2.24,1,4,4.5,4,7.8s-1.81,5.15-4,4.14-4-4.5-4-7.8S83.76,132.91,86,133.92Z" fill="none" stroke="#add037" stroke-linecap="round" stroke-linejoin="round" stroke-width="2"/><path d="M86,138a2.84,2.84,0,0,1,1.28,2.47c0,1-.57,1.63-1.28,1.31a2.84,2.84,0,0,1-1.28-2.47C84.72,138.27,85.29,137.68,86,138Z" fill="none" stroke="#939598" stroke-linecap="round" stroke-linejoin="round" stroke-width="2"/><path d="M84,133.76l36.94-13a2.63,2.63,0,0,1,2,.15c2.24,1,4,4.5,4,7.8,0,2.23-.85,3.8-2.08,4.27L87.86,146" fill="none" stroke="#add037" stroke-linecap="round" stroke-linejoin="round" stroke-width="2"/></svg>