<svg xmlns="http://www.w3.org/2000/svg" viewBox="0 0 133.84 136.56"><title>piano</title><polyline points="119.21 60.72 22.47 5.17 25.84 1 129.84 60.72" fill="none" stroke="#f47920" stroke-linecap="round" stroke-linejoin="round" stroke-width="2"/><path d="M42.75,16.81,11.19,60.72" fill="none" stroke="#f47920" stroke-linecap="round" stroke-linejoin="round" stroke-width="2"/><polygon points="4 99.48 129.84 99.48 129.84 93.34 4 93.34 4 99.48" fill="none" stroke="#939598" stroke-linecap="round" stroke-linejoin="round" stroke-width="2"/><polyline points="86.69 60.72 129.84 60.72 129.84 81.06 4 81.06 4 60.72 47.14 60.72" fill="none" stroke="#939598" stroke-linecap="round" stroke-linejoin="round" stroke-width="2"/><polygon points="11.19 81.06 122.65 81.06 122.65 73.67 11.19 73.67 11.19 81.06" fill="none" stroke="#f47920" stroke-linecap="round" stroke-linejoin="round" stroke-width="2"/><path d="M18.58,77.36v-3.7" fill="none" stroke="#f47920" stroke-linecap="round" stroke-linejoin="round" stroke-width="2"/><path d="M30.66,77.36v-3.7" fill="none" stroke="#f47920" stroke-linecap="round" stroke-linejoin="round" stroke-width="2"/><polygon points="1 93.34 132.84 93.34 132.84 81.06 1 81.06 1 93.34" fill="none" stroke="#939598" stroke-linecap="round" stroke-linejoin="round" stroke-width="2"/><path d="M42.75,77.36v-3.7" fill="none" stroke="#f47920" stroke-linecap="round" stroke-linejoin="round" stroke-width="2"/><path d="M54.83,77.36v-3.7" fill="none" stroke="#f47920" stroke-linecap="round" stroke-linejoin="round" stroke-width="2"/><path d="M66.92,77.36v-3.7" fill="none" stroke="#f47920" stroke-linecap="round" stroke-linejoin="round" stroke-width="2"/><path d="M79,77.36v-3.7" fill="none" stroke="#f47920" stroke-linecap="round" stroke-linejoin="round" stroke-width="2"/><path d="M91.09,77.36v-3.7" fill="none" stroke="#f47920" stroke-linecap="round" stroke-linejoin="round" stroke-width="2"/><path d="M103.17,77.36v-3.7" fill="none" stroke="#f47920" stroke-linecap="round" stroke-linejoin="round" stroke-width="2"/><path d="M115.26,77.36v-3.7" fill="none" stroke="#f47920" stroke-linecap="round" stroke-linejoin="round" stroke-width="2"/><polygon points="47.14 50.29 66.92 54.33 66.92 73.67 47.14 73.67 47.14 50.29" fill="none" stroke="#add037" stroke-linecap="round" stroke-linejoin="round" stroke-width="2"/><polygon points="86.69 50.29 66.92 54.33 66.92 73.67 86.69 73.67 86.69 50.29" fill="none" stroke="#add037" stroke-linecap="round" stroke-linejoin="round" stroke-width="2"/><polygon points="18.58 135.56 12.99 135.56 11.19 99.48 20.38 99.48 18.58 135.56" fill="none" stroke="#939598" stroke-linecap="round" stroke-linejoin="round" stroke-width="2"/><polygon points="69.72 114.03 64.12 114.03 62.92 99.48 70.91 99.48 69.72 114.03" fill="none" stroke="#939598" stroke-linecap="round" stroke-linejoin="round" stroke-width="2"/><polygon points="120.85 135.56 115.26 135.56 113.46 99.48 122.65 99.48 120.85 135.56" fill="none" stroke="#939598" stroke-linecap="round" stroke-linejoin="round" stroke-width="2"/></svg>