<svg xmlns="http://www.w3.org/2000/svg" width="31" height="31" viewBox="0 0 31 31">
    <path fill="#D1D3D4" fill-rule="evenodd" d="M15.88 24.911c.516.008 1.268-.057 2.014-.193a8.05 8.05 0 0 0 2.584-.923c.7-.402 1.3-.914 1.763-1.58.677-.974.93-2.058.866-3.234-.08-1.432-.704-2.548-1.89-3.35a7.57 7.57 0 0 0-1.538-.785c-1.123-.43-2.288-.71-3.456-.984a48.344 48.344 0 0 1-2.17-.558 3.795 3.795 0 0 1-1.272-.63c-.272-.206-.496-.455-.587-.794-.14-.523-.027-.99.337-1.39.454-.499 1.038-.76 1.686-.893.718-.147 1.442-.132 2.165-.039.719.093 1.323.411 1.771.986.23.294.426.614.633.925.16.24.309.487.47.727.296.442.72.637 1.247.664.959.047 1.804-.734 1.799-1.695-.004-.74-.29-1.383-.74-1.954-.526-.668-1.192-1.162-1.958-1.524-.971-.46-1.998-.683-3.066-.758a12.757 12.757 0 0 0-3.375.196c-.87.17-1.703.45-2.458.924-1.494.938-2.246 2.277-2.156 4.056.052 1.004.407 1.88 1.123 2.602.575.58 1.254.996 2.006 1.303 1.012.414 2.064.694 3.127.94.818.19 1.634.393 2.446.61a3.487 3.487 0 0 1 1.43.766c.251.223.443.489.526.814.19.748.059 1.424-.49 1.992a3.332 3.332 0 0 1-1.475.87 5.93 5.93 0 0 1-2.846.13c-.968-.187-1.727-.697-2.217-1.568-.18-.319-.333-.652-.501-.977-.111-.214-.212-.436-.344-.636-.365-.553-.88-.817-1.548-.78-.944.053-1.719.812-1.596 1.857.07.6.265 1.152.57 1.669.81 1.374 2.004 2.26 3.511 2.743 1.095.35 2.223.468 3.61.471m1.953 4.76c-4.665.576-8.72-.642-12.025-3.954-3.3-3.307-4.508-7.36-3.923-12C.799 11.898.416 9.917.795 7.804c.33-1.842 1.204-3.397 2.574-4.67a8.42 8.42 0 0 1 10.096-.994c4.632-.592 8.697.62 12.013 3.933 3.31 3.309 4.526 7.368 3.94 12.02 1.104 1.845 1.483 3.858 1.075 6-.34 1.779-1.191 3.287-2.506 4.531a8.422 8.422 0 0 1-10.153 1.047"/>
</svg>