<svg width="14px" height="19px" viewBox="0 0 14 19" version="1.1" xmlns="http://www.w3.org/2000/svg">
    <g stroke="none" stroke-width="1" fill="none" fill-rule="evenodd" stroke-linecap="round" stroke-linejoin="round">
        <g transform="translate(-106.000000, -5650.000000)" stroke="#939598" stroke-width="2">
            <g transform="translate(23.000000, 5560.094543)">
                <g transform="translate(84.170564, 90.500000)">
                    <g transform="translate(0.000000, 0.501953)">
                        <path d="M9.89929762,16.2328189 L1.66818858,16.2328189 C0.746818812,16.2328189 0.000102888863,15.4861029 0.000102888863,14.5647332 L0.000102888863,6.33362412 C0.000102888863,5.41251158 0.746818812,4.66528121 1.66818858,4.66528121 L9.89929762,4.66528121 C10.8206674,4.66528121 11.5673833,5.41251158 11.5673833,6.33362412 L11.5673833,14.5647332 C11.5673833,15.4861029 10.8206674,16.2328189 9.89929762,16.2328189 Z"></path>
                        <path d="M3.40330637,4.66762193 C3.03676479,4.20565094 2.81812596,3.62149942 2.81812596,2.98590346 C2.81812596,1.4898994 4.03067121,0.277611367 5.52641806,0.277611367 C7.02242212,0.277611367 8.23496737,1.4898994 8.23496737,2.98590346 C8.23496737,3.62098497 8.01632854,4.20487927 7.65030141,4.66685026"></path>
                        <polygon points="5.52652094 10.9635201 5.52652094 13.6604944 5.52652094 10.9635201 5.52652094 8.26654575"></polygon>
                        <polygon points="7.93105939 8.26646858 5.52654667 8.26646858 3.12203394 8.26646858 5.52654667 8.26646858"></polygon>
                    </g>
                </g>
            </g>
        </g>
    </g>
</svg>