<svg xmlns="http://www.w3.org/2000/svg" viewBox="0 0 91.55 48.97">
    <defs>
        <style>.cls-1{fill:none;stroke:#939598;stroke-linecap:round;stroke-width:1.5px;}</style>
    </defs>
    <g data-name="Слой 2">
        <g data-name="Слой 1">
            <polyline class="cls-1"
                      points="64.23 41.86 60.59 41.86 60.59 18.51 77.16 18.51 89.53 30.88 89.53 35.27"/>
            <path class="cls-1"
                  d="M85.61,35.18h3.81a1.39,1.39,0,0,1,1.39,1.39V39a1.39,1.39,0,0,1-1.39,1.39H85.61A1.39,1.39,0,0,1,84.22,39V36.57A1.39,1.39,0,0,1,85.61,35.18Z"/>
            <path class="cls-1" d="M78.12,42.23a6,6,0,1,1-6-6A6,6,0,0,1,78.12,42.23Z"/>
            <path class="cls-1" d="M35.09,42.23a6,6,0,1,1-6-6A6,6,0,0,1,35.09,42.23Z"/>
            <path class="cls-1" d="M84.22,39H77.16"/>
            <polygon class="cls-1" points="2.45 36.24 60.59 36.24 60.59 33.87 2.45 33.87 2.45 36.24"/>
            <path class="cls-1" d="M8.54,40V36.24"/>
            <polyline class="cls-1" points="21.19 41.86 12.09 41.86 12.09 36.24"/>
            <path class="cls-1" d="M24.31,36.24c-2.2,1.56-3.12,3.76-3.12,7.15"/>
            <path class="cls-1" d="M67.28,36c-2.19,1.8-3.12,4-3.12,7.42"/>
            <path class="cls-1" d="M35.09,41.86h25.5"/>
            <polyline class="cls-1" points="64.52 18.51 64.52 25.97 77.5 25.97 80.69 28.24 86.89 28.24"/>
            <path class="cls-1" d="M60.59,18.51V10.17s10.94.37,16,8.33"/>
            <path class="cls-1" d="M89.53,30.88h0a4.18,4.18,0,0,0-4.18,4.18v.12"/>
            <polygon class="cls-1" points="0.75 33.87 57.86 33.87 57.86 0.75 0.75 0.75 0.75 33.87"/>
        </g>
    </g>
</svg>