<svg data-name="Слой 1" xmlns="http://www.w3.org/2000/svg" viewBox="0 0 102 50">
    <defs>
        <style>.cls-1{fill:none;stroke:#939598;stroke-linecap:round;stroke-width:1.5px;}</style>
    </defs>
    <polyline class="cls-1"
              points="73.86 41.91 70.22 41.91 70.22 18.56 86.78 18.56 99.16 30.93 99.16 35.32"/>
    <path class="cls-1"
          d="M95.23,35.24H99a1.39,1.39,0,0,1,1.39,1.39V39A1.39,1.39,0,0,1,99,40.43H95.23A1.39,1.39,0,0,1,93.85,39V36.62A1.39,1.39,0,0,1,95.23,35.24Z"/>
    <path class="cls-1" d="M87.75,42.28a6,6,0,1,1-6-6A6,6,0,0,1,87.75,42.28Z"/>
    <path class="cls-1" d="M40.48,42.28a6,6,0,1,1-6-6A6,6,0,0,1,40.48,42.28Z"/>
    <path class="cls-1" d="M93.85,39H86.79"/>
    <polygon class="cls-1" points="3.16 36.3 70.22 36.3 70.22 33.93 3.16 33.93 3.16 36.3"/>
    <path class="cls-1" d="M9.26,40.05V36.3"/>
    <polyline class="cls-1" points="26.58 41.91 12.8 41.91 12.8 36.3"/>
    <path class="cls-1" d="M29.69,36.3c-2.2,1.56-3.12,3.76-3.12,7.15"/>
    <path class="cls-1" d="M76.91,36c-2.19,1.8-3.12,4-3.12,7.42"/>
    <path class="cls-1" d="M40.48,41.91H70.22"/>
    <polyline class="cls-1" points="74.15 18.56 74.15 26.03 87.13 26.03 90.32 28.29 96.52 28.29"/>
    <path class="cls-1" d="M70.22,18.56V10.23s10.94.37,16,8.33"/>
    <path class="cls-1" d="M99.16,30.93h0A4.18,4.18,0,0,0,95,35.12v.12"/>
    <polygon class="cls-1" points="1.46 33.93 67.49 33.93 67.49 0.81 1.46 0.81 1.46 33.93"/>
</svg>