<svg data-name="Слой 1" xmlns="http://www.w3.org/2000/svg" viewBox="0 0 113 52">
    <defs>
        <style>.cls-1{fill:none;stroke:#939598;stroke-linecap:round;stroke-width:1.5px;}</style>
    </defs>
    <path class="cls-1"
          d="M90.11,44.92H76.38V15.41H90.11a3,3,0,0,1,2.63,1.9l1.62,4.81a9.59,9.59,0,0,0,5,5.21l6.86,2.6a4.16,4.16,0,0,1,2.53,2.75l1.7,5.91"/>
    <path class="cls-1"
          d="M106.84,38.59h3.62a1.32,1.32,0,0,1,1.32,1.32v2.29a1.32,1.32,0,0,1-1.32,1.32h-3.62a1.32,1.32,0,0,1-1.32-1.32V39.9A1.32,1.32,0,0,1,106.84,38.59Z"/>
    <path class="cls-1" d="M103.36,45.28a5.68,5.68,0,1,1-5.68-5.68A5.68,5.68,0,0,1,103.36,45.28Z"/>
    <path class="cls-1" d="M40.07,45.28a5.68,5.68,0,1,1-5.68-5.68A5.68,5.68,0,0,1,40.07,45.28Z"/>
    <path class="cls-1" d="M105.52,42.19h-3.07"/>
    <polygon class="cls-1" points="3.03 39.59 76.38 39.59 76.38 37.34 3.03 37.34 3.03 39.59"/>
    <path class="cls-1" d="M8.81,43.16V39.59"/>
    <polyline class="cls-1" points="26.87 44.92 12.18 44.92 12.18 39.59"/>
    <path class="cls-1" d="M29.83,39.59c-2.08,1.48-3,3.57-3,6.79"/>
    <path class="cls-1" d="M93.07,39.34c-2.08,1.71-3,3.82-3,7"/>
    <path class="cls-1" d="M40.07,44.92H76.38"/>
    <path class="cls-1" d="M76.38,15.41V7.5s10.38.35,15.23,7.91"/>
    <path class="cls-1" d="M108.76,32.67h-2.39a.69.69,0,0,0-.68.83L106,35a.69.69,0,0,0,.68.55h2.91"/>
    <path class="cls-1" d="M78.58,15.41v7.72a2.27,2.27,0,0,0,2.27,2.27H95.63"/>
    <polyline class="cls-1" points="88.28 15.41 91.41 25.4 91.41 40.88"/>
    <path class="cls-1" d="M95,32.26h1.82"/>
    <polygon class="cls-1" points="1.42 37.34 73.78 37.34 73.78 1.06 1.42 1.06 1.42 37.34"/>
</svg>