<svg data-name="Слой 1" xmlns="http://www.w3.org/2000/svg" viewBox="0 0 142 41">
    <defs>
        <style>.cls-1{fill:none;stroke:#939598;stroke-linecap:round;stroke-width:1.5px;}</style>
    </defs>
    <path class="cls-1" d="M123.23,10V3.89s8,.27,11.75,6.1"/>
    <path class="cls-1"
          d="M137.1,30.2h2.79a1,1,0,0,1,1,1V33a1,1,0,0,1-1,1H137.1a1,1,0,0,1-1-1V31.22A1,1,0,0,1,137.1,30.2Z"/>
    <path class="cls-1" d="M134.42,35.36A4.39,4.39,0,1,1,130,31,4.39,4.39,0,0,1,134.42,35.36Z"/>
    <path class="cls-1" d="M35.2,35.36A4.39,4.39,0,1,1,30.82,31,4.39,4.39,0,0,1,35.2,35.36Z"/>
    <path class="cls-1" d="M136.09,33h-2.37"/>
    <polygon class="cls-1" points="89.67 30.98 2.58 30.98 2.58 29.24 92.06 29.24 89.67 30.98"/>
    <path class="cls-1" d="M7,33.73V31"/>
    <polyline class="cls-1" points="25.02 35.09 9.64 35.09 9.64 30.98"/>
    <path class="cls-1" d="M27.31,31C25.7,32.12,25,33.73,25,36.22"/>
    <path class="cls-1" d="M47.35,35.36A4.39,4.39,0,1,1,43,31,4.39,4.39,0,0,1,47.35,35.36Z"/>
    <path class="cls-1" d="M39.45,31c-1.61,1.14-2.28,2.75-2.28,5.24"/>
    <path class="cls-1" d="M59.49,35.36A4.39,4.39,0,1,1,55.1,31,4.39,4.39,0,0,1,59.49,35.36Z"/>
    <path class="cls-1" d="M51.59,31C50,32.12,49.3,33.73,49.3,36.22"/>
    <path class="cls-1" d="M101.2,35.36A4.39,4.39,0,1,1,96.81,31,4.39,4.39,0,0,1,101.2,35.36Z"/>
    <path class="cls-1" d="M93.3,31C91.69,32.12,91,33.73,91,36.22"/>
    <path class="cls-1" d="M126.48,30.78a6.33,6.33,0,0,0-2.28,5.43"/>
    <path class="cls-1"
          d="M140,30.2V27a50.36,50.36,0,0,0-1.52-12.27l-.64-2.56A2.83,2.83,0,0,0,135.09,10H123.23V29.24h2.12"/>
    <path class="cls-1"
          d="M139.63,20.84h0a20.73,20.73,0,0,1-6-.88l-1.46-.44a3,3,0,0,1-2.16-2.9V13.17a.73.73,0,0,1,.73-.73h7.08"/>
    <polyline class="cls-1" points="139.99 26.03 138.5 26.03 138.5 28.42 140 28.42"/>
    <path class="cls-1" d="M125.34,10V32"/>
    <path class="cls-1" d="M136.09,12.44a39.56,39.56,0,0,1,1.31,8.28"/>
    <path class="cls-1" d="M90.19,29.24H116.6"/>
    <path class="cls-1" d="M100,32.35h5.24"/>
    <path class="cls-1" d="M105.24,35.09h-4"/>
    <polygon class="cls-1" points="105.24 36.93 120.18 36.93 120.18 31.42 105.24 31.42 105.24 36.93"/>
    <path class="cls-1" d="M120.18,32.35h4.92"/>
    <path class="cls-1" d="M120.18,35.09h4"/>
    <path class="cls-1" d="M115.36,26.35h1.79l1.08,1.08a1.75,1.75,0,0,0,2.48,0l1-1h1.54"/>
    <path class="cls-1" d="M107.57,29.24v2.18"/>
    <path class="cls-1" d="M110.69,29.24v2.18"/>
    <path class="cls-1" d="M63.37,35.09H80.8"/>
    <path class="cls-1" d="M65.24,35.09V31"/>
    <path class="cls-1" d="M68.66,35.09V31"/>
    <path class="cls-1" d="M72.09,35.09V31"/>
    <path class="cls-1" d="M75.51,35.09V31"/>
    <path class="cls-1" d="M78.94,35.09V31"/>
    <polygon class="cls-1" points="84.38 36.22 85.94 36.22 85.94 30.98 84.38 30.98 84.38 36.22"/>
    <path class="cls-1" d="M83.61,37.24h3.11"/>
    <polygon class="cls-1" points="1.34 29.24 115.36 29.24 115.36 1.25 1.34 1.25 1.34 29.24"/>
</svg>