<svg xmlns="http://www.w3.org/2000/svg" viewBox="0 0 280.6 124.76"><title>cars</title><path d="M239,22.09v-15s18.4.67,27,15" fill="none" stroke="#add037" stroke-linecap="round" stroke-linejoin="round" stroke-width="2"/><path d="M270.86,67.51h6.41a2.33,2.33,0,0,1,2.33,2.33V73.9a2.33,2.33,0,0,1-2.33,2.33h-6.41a2.33,2.33,0,0,1-2.33-2.33V69.84A2.33,2.33,0,0,1,270.86,67.51Z" fill="none" stroke="#939598" stroke-linecap="round" stroke-linejoin="round" stroke-width="2"/><path d="M264.7,79.37A10.07,10.07,0,1,1,254.63,69.3,10.07,10.07,0,0,1,264.7,79.37Z" fill="none" stroke="#939598" stroke-linecap="round" stroke-linejoin="round" stroke-width="2"/><path d="M268.53,73.9H263.1" fill="none" stroke="#939598" stroke-linecap="round" stroke-linejoin="round" stroke-width="2"/><polyline points="212.06 69.29 243.84 69.29 243.84 65.31 209.9 65.31" fill="none" stroke="#939598" stroke-linecap="round" stroke-linejoin="round" stroke-width="2"/><path d="M246.46,68.85c-3.69,3-5.24,6.76-5.24,12.48" fill="none" stroke="#939598" stroke-linecap="round" stroke-linejoin="round" stroke-width="2"/><path d="M215.12,78.74H241" fill="none" stroke="#939598" stroke-linecap="round" stroke-linejoin="round" stroke-width="2"/><path d="M277.51,67.51V60.08A115.7,115.7,0,0,0,274,31.9L272.55,26a6.51,6.51,0,0,0-6.31-4.92H239V65.31" fill="none" stroke="#939598" stroke-linecap="round" stroke-linejoin="round" stroke-width="2"/><path d="M276.65,46h0a47.62,47.62,0,0,1-13.72-2l-3.35-1a7,7,0,0,1-5-6.67v-8a1.67,1.67,0,0,1,1.67-1.67h16.26" fill="none" stroke="#939598" stroke-linecap="round" stroke-linejoin="round" stroke-width="2"/><polyline points="277.49 57.93 274.06 57.93 274.06 63.42 277.51 63.42" fill="none" stroke="#939598" stroke-linecap="round" stroke-linejoin="round" stroke-width="2"/><path d="M243.84,21.09V71.61" fill="none" stroke="#939598" stroke-linecap="round" stroke-linejoin="round" stroke-width="2"/><path d="M268.53,26.71s3,11.1,3,19" fill="none" stroke="#939598" stroke-linecap="round" stroke-linejoin="round" stroke-width="2"/><polyline points="209.19 65.31 234.38 65.31 234.38 1 61.6 1 61.6 22.5" fill="none" stroke="#f47920" stroke-linecap="round" stroke-linejoin="round" stroke-width="2"/><path d="M154.94,39.3v-14s18.4.63,27,14" fill="none" stroke="#add037" stroke-linecap="round" stroke-linejoin="round" stroke-width="2"/><path d="M179.29,91.61H154.94V39.3H179.8a4.47,4.47,0,0,1,4,2.85l4.35,12.91A7.2,7.2,0,0,0,191.89,59l16,6.06a7.38,7.38,0,0,1,4.48,4.87l3,10.48" fill="none" stroke="#939598" stroke-linecap="round" stroke-linejoin="round" stroke-width="2"/><path d="M208.93,80.38h6.41a2.33,2.33,0,0,1,2.33,2.33h0v4.06a2.33,2.33,0,0,1-2.33,2.33h-6.41a2.33,2.33,0,0,1-2.33-2.33h0V82.71a2.33,2.33,0,0,1,2.33-2.33Z" fill="none" stroke="#939598" stroke-linecap="round" stroke-linejoin="round" stroke-width="2"/><path d="M202.77,92.24A10.07,10.07,0,1,1,192.7,82.16a10.07,10.07,0,0,1,10.07,10.08Z" fill="none" stroke="#939598" stroke-linecap="round" stroke-linejoin="round" stroke-width="2"/><path d="M206.6,86.78h-5.44" fill="none" stroke="#939598" stroke-linecap="round" stroke-linejoin="round" stroke-width="2"/><polyline points="129.1 82.16 154.94 82.16 154.94 78.18 125.35 78.23" fill="none" stroke="#939598" stroke-linecap="round" stroke-linejoin="round" stroke-width="2"/><path d="M184.53,81.72c-3.69,3-5.24,6.76-5.24,12.48" fill="none" stroke="#939598" stroke-linecap="round" stroke-linejoin="round" stroke-width="2"/><path d="M139.1,91.61H155" fill="none" stroke="#939598" stroke-linecap="round" stroke-linejoin="round" stroke-width="2"/><path d="M212.34,69.9h-4.23a1.23,1.23,0,0,0-1.2,1.48l.56,2.72a1.23,1.23,0,0,0,1.21,1h5.15" fill="none" stroke="#939598" stroke-linecap="round" stroke-linejoin="round" stroke-width="2"/><path d="M158.86,39.3V53a4,4,0,0,0,4,4h26.19" fill="none" stroke="#939598" stroke-linecap="round" stroke-linejoin="round" stroke-width="2"/><polyline points="176.05 39.3 181.58 57.02 181.58 84.45" fill="none" stroke="#939598" stroke-linecap="round" stroke-linejoin="round" stroke-width="2"/><path d="M188,69.17h3.22" fill="none" stroke="#939598" stroke-linecap="round" stroke-linejoin="round" stroke-width="2"/><polyline points="125.1 78.23 150.34 78.18 150.34 22.45 31.1 22.45 31.1 44" fill="none" stroke="#f47920" stroke-linecap="round" stroke-linejoin="round" stroke-width="2"/><path d="M92.73,73.78v-14s18.4.63,27,14" fill="none" stroke="#add037" stroke-linecap="round" stroke-linejoin="round" stroke-width="2"/><polyline points="98.86 113.06 92.73 113.06 92.73 73.78 120.59 73.78 141.41 94.6 141.41 101.98" fill="none" stroke="#939598" stroke-linecap="round" stroke-linejoin="round" stroke-width="2"/><path d="M134.81,101.83h6.41a2.33,2.33,0,0,1,2.33,2.33h0v4.06a2.33,2.33,0,0,1-2.33,2.33h-6.41a2.33,2.33,0,0,1-2.33-2.33h0v-4.06a2.33,2.33,0,0,1,2.33-2.33Z" fill="none" stroke="#939598" stroke-linecap="round" stroke-linejoin="round" stroke-width="2"/><path d="M122.22,113.69a10.07,10.07,0,1,1-10.07-10.07,10.07,10.07,0,0,1,10.07,10.07Z" fill="none" stroke="#939598" stroke-linecap="round" stroke-linejoin="round" stroke-width="2"/><path d="M49.84,113.69a10.07,10.07,0,1,1-10.07-10.07,10.07,10.07,0,0,1,10.07,10.07Z" fill="none" stroke="#939598" stroke-linecap="round" stroke-linejoin="round" stroke-width="2"/><path d="M132.48,108.23H120.61" fill="none" stroke="#939598" stroke-linecap="round" stroke-linejoin="round" stroke-width="2"/><polygon points="3.61 103.62 92.73 103.62 92.73 99.63 3.61 99.63 3.61 103.62" fill="none" stroke="#939598" stroke-linecap="round" stroke-linejoin="round" stroke-width="2"/><path d="M12.8,109.94v-6.32" fill="none" stroke="#939598" stroke-linecap="round" stroke-linejoin="round" stroke-width="2"/><polyline points="26.07 113.06 18.38 113.06 18.38 103.62" fill="none" stroke="#939598" stroke-linecap="round" stroke-linejoin="round" stroke-width="2"/><path d="M31.69,103.62c-3.7,2.63-5.24,6.32-5.24,12" fill="none" stroke="#939598" stroke-linecap="round" stroke-linejoin="round" stroke-width="2"/><path d="M104,103.18c-3.69,3-5.24,6.76-5.24,12.48" fill="none" stroke="#939598" stroke-linecap="round" stroke-linejoin="round" stroke-width="2"/><path d="M49.84,113.06H92.73" fill="none" stroke="#939598" stroke-linecap="round" stroke-linejoin="round" stroke-width="2"/><polyline points="99.33 73.78 99.33 86.34 121.18 86.34 126.54 90.15 136.97 90.15" fill="none" stroke="#939598" stroke-linecap="round" stroke-linejoin="round" stroke-width="2"/><path d="M141.41,94.6h0a7,7,0,0,0-7,7v.2" fill="none" stroke="#939598" stroke-linecap="round" stroke-linejoin="round" stroke-width="2"/><polygon points="1 99.63 88.54 99.63 88.54 43.91 1 43.91 1 99.63" fill="none" stroke="#f47920" stroke-linecap="round" stroke-linejoin="round" stroke-width="2"/></svg>