<svg xmlns="http://www.w3.org/2000/svg" width="222" height="222" viewBox="0 0 222 222">
    <g fill="none" fill-rule="evenodd" transform="translate(-.826)">
        <circle cx="111.826" cy="111" r="111" fill="#F7F7F7"/>
        <path fill="#FFF" stroke="#939598" stroke-linecap="round" stroke-linejoin="round" stroke-width="2" d="M40.966 26.031l8.583 4.09a15.792 15.792 0 0 1 8.09 8.984l52.201 147.212 81.425-28.957M86.486 183.253c4.106 11.58-1.94 24.302-13.503 28.415-11.564 4.112-24.267-1.942-28.374-13.523-4.106-11.58 1.94-24.302 13.503-28.414 11.564-4.112 24.267 1.941 28.374 13.522z"/>
        <path fill="#FFF" stroke="#ADD037" stroke-linecap="round" stroke-linejoin="round" stroke-width="2" d="M71.68 188.519a6.52 6.52 0 0 1-3.955 8.321 6.505 6.505 0 0 1-8.31-3.96 6.519 6.519 0 0 1 3.955-8.321 6.504 6.504 0 0 1 8.31 3.96z"/>
        <path fill="#FFF" stroke="#939598" stroke-linecap="round" stroke-linejoin="round" stroke-width="2" d="M86.485 183.254l19.775-7.033M94.419 142.826l-17.384 28.827"/>
        <path fill="#FFF" stroke="#ADD037" stroke-linecap="round" stroke-linejoin="round" stroke-width="2" d="M33.6 28.652L15.77 20.154a5.538 5.538 0 0 1-2.616-7.376 5.523 5.523 0 0 1 7.367-2.621l17.828 8.496a5.54 5.54 0 0 1 2.616 7.378 5.525 5.525 0 0 1-7.367 2.62z"/>
        <path fill="#FFF" stroke="#939598" stroke-linecap="round" stroke-linejoin="round" stroke-width="2" d="M157.6 85.812L83.54 112.151l26.299 74.166 74.058-26.338zM121.549 32.168l-58.937 20.96L83.54 112.15l58.937-20.96z"/>
        <path fill="#FFF" stroke="#F47920" stroke-linecap="round" stroke-linejoin="round" stroke-width="2" d="M132.098 114.56l-10.663 3.79-6.197-17.473 10.663-3.791zM103.608 58.225l-10.663 3.792-6.196-17.474 10.662-3.791z"/>
        <path fill="#FFF" stroke="#939598" stroke-linecap="round" stroke-linejoin="round" stroke-width="2" d="M158.356 157.694l13.122-4.667M155.877 150.705L169 146.038M114.887 87.204l13.123-4.666"/>
    </g>
</svg>
