<svg xmlns="http://www.w3.org/2000/svg" viewBox="0 0 146.47 127.81"><title>gloves</title><path d="M102.35,106c3,3,8.54,3.85,12.06.33,2.26-2.27,4.57-7.1-1.72-13.4L70.95,51.12s14.55-.47,19.57-1,9.56-1,10.06-4.54-.5-6.55-6-8.57S43,23.18,43,23.18l-8.55-8.57L1,48.13,12.06,59.22A23.78,23.78,0,0,0,18.8,79.08l43.6,43.51c3.52,3.53,6.79,3.28,8.3,1.76,1.26-1.26,3.27-4.79-.5-8.57" fill="none" stroke="#939598" stroke-linecap="round" stroke-linejoin="round" stroke-width="2"/><path d="M129.56,92c3,3,9.49,4.31,13,.78,2.26-2.27,5.53-8.07-.75-14.37L100.08,36.54s13.58.5,18.61,0,9.56-1,10.06-4.54-.5-6.55-6-8.57S71.16,9.57,71.16,9.57L62.61,1,41.74,21.92" fill="none" stroke="#939598" stroke-linecap="round" stroke-linejoin="round" stroke-width="2"/><path d="M56.32,102.07l22.76,22.81a6.57,6.57,0,0,0,9.3,0,6.4,6.4,0,0,0,0-9.16" fill="none" stroke="#939598" stroke-linecap="round" stroke-linejoin="round" stroke-width="2"/><path d="M67.39,94.51l25.94,26.21a8.38,8.38,0,1,0,11.84-11.87L80.38,84" fill="none" stroke="#939598" stroke-linecap="round" stroke-linejoin="round" stroke-width="2"/><path d="M116.48,102.88c3.27,3.28,9.8,4.22,13.07.94a8.4,8.4,0,0,0,0-11.87L104.77,67.12" fill="none" stroke="#939598" stroke-linecap="round" stroke-linejoin="round" stroke-width="2"/></svg>