<svg xmlns="http://www.w3.org/2000/svg" viewBox="0 0 127.81 146.45"><title>gloves</title><path d="M106,44.1c3-3,3.85-8.54.33-12.06-2.27-2.26-7.1-4.57-13.4,1.72L51.12,75.5s-.47-14.55-1-19.57-1-9.56-4.54-10.06-6.55.5-8.57,6-13.83,51.58-13.83,51.58L14.61,112l33.52,33.45,11.09-11.06a23.78,23.78,0,0,0,19.86-6.74l43.51-43.6c3.53-3.52,3.28-6.79,1.76-8.3-1.26-1.26-4.79-3.27-8.57.5" fill="none" stroke="#939598" stroke-linecap="round" stroke-linejoin="round" stroke-width="2"/><path d="M92,16.89c3-3,4.31-9.49.78-13-2.27-2.26-8.07-5.53-14.37.75L36.54,46.37s.5-13.58,0-18.61S35.54,18.2,32,17.7s-6.55.5-8.57,6S9.57,75.29,9.57,75.29L1,83.84l20.92,20.87" fill="none" stroke="#939598" stroke-linecap="round" stroke-linejoin="round" stroke-width="2"/><path d="M102.07,90.13l22.81-22.76a6.57,6.57,0,0,0,0-9.29h0a6.4,6.4,0,0,0-9.05-.11l-.11.11" fill="none" stroke="#939598" stroke-linecap="round" stroke-linejoin="round" stroke-width="2"/><path d="M94.51,79.06l26.21-25.94a8.38,8.38,0,0,0-11.87-11.84L84,66.07" fill="none" stroke="#939598" stroke-linecap="round" stroke-linejoin="round" stroke-width="2"/><path d="M102.88,30c3.28-3.27,4.22-9.8.94-13.07a8.4,8.4,0,0,0-11.87,0L67.12,41.68" fill="none" stroke="#939598" stroke-linecap="round" stroke-linejoin="round" stroke-width="2"/></svg>