<svg xmlns="http://www.w3.org/2000/svg" viewBox="0 0 30 30"><title>icon_skype</title><path d="M15.23,24a11.17,11.17,0,0,0,2-.19,8,8,0,0,0,2.58-.92,5.33,5.33,0,0,0,1.76-1.58,5,5,0,0,0,.87-3.23,4.11,4.11,0,0,0-1.89-3.35A7.57,7.57,0,0,0,19,13.94a26.54,26.54,0,0,0-3.46-1q-1.09-.25-2.17-.56a3.8,3.8,0,0,1-1.27-.63,1.49,1.49,0,0,1-.59-.79,1.41,1.41,0,0,1,.34-1.39,3,3,0,0,1,1.69-.89,6.56,6.56,0,0,1,2.16,0,2.58,2.58,0,0,1,1.77,1c.23.29.43.61.63.93l.47.73a1.49,1.49,0,0,0,1.25.66,1.72,1.72,0,0,0,1.8-1.69,3.14,3.14,0,0,0-.74-2,5.35,5.35,0,0,0-2-1.52A8.45,8.45,0,0,0,15.89,6a12.76,12.76,0,0,0-3.37.2,7.13,7.13,0,0,0-2.46.92A4.26,4.26,0,0,0,7.9,11.2,3.85,3.85,0,0,0,9,13.8a5.92,5.92,0,0,0,2,1.3,20.28,20.28,0,0,0,3.13.94q1.23.29,2.45.61a3.49,3.49,0,0,1,1.43.77,1.63,1.63,0,0,1,.53.81,2,2,0,0,1-.49,2,3.33,3.33,0,0,1-1.48.87,5.93,5.93,0,0,1-2.85.13,3.1,3.1,0,0,1-2.22-1.57c-.18-.32-.33-.65-.5-1a6.94,6.94,0,0,0-.34-.64,1.63,1.63,0,0,0-1.55-.78,1.65,1.65,0,0,0-1.6,1.86,4.21,4.21,0,0,0,.57,1.67,6.06,6.06,0,0,0,3.51,2.74,11.61,11.61,0,0,0,3.61.47m2,4.76a13.74,13.74,0,0,1-12-4,13.71,13.71,0,0,1-3.92-12A8.34,8.34,0,0,1,.14,6.9,8.22,8.22,0,0,1,2.72,2.23a8.42,8.42,0,0,1,10.1-1,13.7,13.7,0,0,1,12,3.93,13.72,13.72,0,0,1,3.94,12,8.33,8.33,0,0,1,1.08,6,8.24,8.24,0,0,1-2.51,4.53,8.42,8.42,0,0,1-10.15,1" fill="#d1d3d4"/></svg>