<svg id="logo" xmlns="http://www.w3.org/2000/svg" viewBox="0 0 160.07 119.95">
    <defs>
        <style type="text/css">
            .cls-1{fill:#fff;}.cls-2{fill:#231f1f;}.cls-3{fill:#f47920;}.cls-4{mask:url(#mask);}.cls-5{fill:#f26722;}
        </style>
    </defs>
    <g id="logo__text">
        <path class="cls-2" d="M22.74,110.73V119h1v-7.34h4.35V119h1v-8.25Zm19.14,0V119h4.93v-.91H42.87v-2.92h3.68v-.86H42.87v-2.7h3.81v-.86Zm20.63,4.74a1.94,1.94,0,0,0,0-3.88c-.75,0-1.54,0-2.33,0v3.88h2.33Zm-3.3,3.5v-8.25c1.08,0,2.22,0,3.3,0a2.82,2.82,0,1,1,0,5.63H60.18V119h-1Zm23.08-7.38H78.48v2.7h3.68v.86H78.48v2.92h3.94V119H77.49v-8.25h4.8Z"/>
        <path class="cls-3" d="M99.75,112.61h-3v1.18h2.76v1.89H96.76V117h3.1v2H94.6v-8.25h5.15Zm12,.21c-.07-1.53,1.21-2.24,2.68-2.24a2.49,2.49,0,0,1,2.76,2.39,2,2,0,0,1-.73,1.53,2.1,2.1,0,0,1,1.2,2c0,1.46-1.06,2.59-3.22,2.59a2.66,2.66,0,0,1-3-2.84h1.88a1,1,0,0,0,1.11,1.06.95.95,0,1,0,0-1.87h-.64v-1.72h.61a.75.75,0,0,0,.8-.74.74.74,0,0,0-.79-.74c-.39,0-.78.2-.78.54Z"/>
        <g class="cls-4">
            <path class="cls-3" d="M132.31,116.18a1.56,1.56,0,0,1-.38,1h2.43v-4.62h-1.67l-.38,3.59Zm-3,1c.64,0,.77-.28.86-1l.62-5.37h5.7v6.42h.82V120h-1.74v-1h-4.93v1H129v-2.79Z"/>
        </g>
        <polygon class="cls-2" points="25.38 92.52 19.27 92.52 19.27 72.69 12.66 72.69 12.66 92.52 6.58 92.52 6.58 72.69 0 72.69 0 98.64 31.99 98.64 31.99 72.69 25.38 72.69 25.38 92.52"/>
        <polygon class="cls-2" points="55.85 83.96 46.28 72.62 43.37 72.62 43.37 98.64 49.98 98.64 49.98 86.55 55.18 93.05 56.49 93.05 61.69 86.55 61.69 98.64 68.3 98.64 68.3 72.62 65.42 72.62 55.85 83.96"/>
        <polygon class="cls-2" points="86.33 88.23 95.47 88.23 95.47 82.29 86.33 82.29 86.33 78.63 96.1 78.63 96.1 72.69 79.68 72.69 79.68 98.64 96.38 98.64 96.38 92.52 86.33 92.52 86.33 88.23"/>
        <path class="cls-2" d="M108.47,90.65c-.27,2.31-.67,2.81-2.22,2.81a8.37,8.37,0,0,1-.91-.06l-.72-.08-.14,5.12.59.08a22.45,22.45,0,0,0,3.11.25c4.47,0,6.33-2.12,6.86-7.81l1.14-12.22h5.43v19.9h6.58V72.69H110.36l-1.89,18Z"/>
        <path class="cls-2" d="M152.79,91.81a3,3,0,0,1-2.17.85c-1.16,0-2.34,0-3.51,0H146V86.37h4.6a2.94,2.94,0,0,1,3,3.1,3.22,3.22,0,0,1-.87,2.34m-2.15-11.42H146v-7.7h-6.47V98.63h11.07a9,9,0,0,0,9.42-9.18c0-4.51-3.24-9.07-9.42-9.07"/>
    </g>
    <g id="logo__img">
        <path class="cls-2" d="M80,53.32a23.88,23.88,0,0,1-19.18-9.65L80,32.6,99.21,43.67A23.88,23.88,0,0,1,80,53.32M77.28,5.68V27.82L58.1,38.9A23.89,23.89,0,0,1,77.28,5.68m26.66,23.74a23.77,23.77,0,0,1-2,9.48L82.79,27.82V5.68a23.93,23.93,0,0,1,21.14,23.74M80,0a29.41,29.41,0,1,0,29.41,29.41A29.45,29.45,0,0,0,80,0"/>
        <path class="cls-1" d="M95.58,25.69c.38.08-.52,0,1.55-.36a155.82,155.82,0,0,0,20-4.23c4.3-1.16,11.42-2.93,10-8q-.48-1.7-.94-3.4A183.59,183.59,0,0,1,97.39,19.93c-2.93.94-3.89,3.39-1.81,5.76"/>
        <path class="cls-2" d="M125.2,11.84a185.54,185.54,0,0,1-27.42,9.57A2.48,2.48,0,0,0,96,22.83a1.55,1.55,0,0,0,.18,1.11l.68-.12a153.9,153.9,0,0,0,19.86-4.19l.33-.09c2.88-.77,7.22-1.94,8.41-4a2.43,2.43,0,0,0,.17-2l-.47-1.69M95.69,27.25a1.71,1.71,0,0,1-.39,0,1.81,1.81,0,0,1-.86-.49A5,5,0,0,1,93.09,22a5.46,5.46,0,0,1,3.84-3.54A183.15,183.15,0,0,0,125.58,8.32a1.53,1.53,0,0,1,2.11,1q.42,1.58.93,3.38a5.45,5.45,0,0,1-.45,4.32c-1.82,3.2-6.71,4.52-10.28,5.48l-.33.09a158,158,0,0,1-20.18,4.26c-.45.07-.71.12-.86.16a1.54,1.54,0,0,1-.83.24"/>
        <path class="cls-1" d="M104.46,30.46c4.78-.2,7.18-.37,12-.87,3.87-.43,6.65-2.89,6-5.39-.27-1.11-.36-1.51-.59-2.53a156.68,156.68,0,0,1-26,4.36c1.84,2.73,3.92,4.4,8.62,4.43"/>
        <path class="cls-2" d="M98.9,27.27c1.26,1.07,2.88,1.64,5.53,1.67,4.75-.2,7.08-.36,11.84-.86a6.26,6.26,0,0,0,4.38-2.13,1.68,1.68,0,0,0,.34-1.38c-.1-.43-.18-.75-.25-1A151.07,151.07,0,0,1,98.9,27.27M104.46,32h0c-5.36,0-7.82-2.07-9.87-5.11a1.53,1.53,0,0,1,1.12-2.38,154.56,154.56,0,0,0,25.83-4.32,1.53,1.53,0,0,1,1.85,1.13v0l.08.33c.18.79.28,1.21.51,2.19a4.72,4.72,0,0,1-.81,3.85,9.21,9.21,0,0,1-6.56,3.42c-4.8.5-7.28.68-12.08.88h-.06"/>
        <path class="cls-1" d="M64.48,25.69c-.38.08.52,0-1.55-.36a155.75,155.75,0,0,1-20-4.23c-4.3-1.16-11.42-2.93-10-8q.51-1.81.94-3.4A183.59,183.59,0,0,0,62.67,19.93c2.93.94,3.9,3.39,1.81,5.76"/>
        <path class="cls-2" d="M34.87,11.84l-.47,1.69a2.43,2.43,0,0,0,.17,2c1.19,2.09,5.53,3.26,8.41,4l.33.09a153.68,153.68,0,0,0,19.85,4.19l.69.12A1.55,1.55,0,0,0,64,22.83a2.54,2.54,0,0,0-1.82-1.44,185,185,0,0,1-27.34-9.55m29.51,15.4a1.54,1.54,0,0,1-.83-.24q-.43-.09-.86-.16a158.22,158.22,0,0,1-20.18-4.26l-.33-.09c-3.57-1-8.46-2.27-10.28-5.48a5.45,5.45,0,0,1-.45-4.32q.51-1.8.93-3.38a1.53,1.53,0,0,1,1.87-1.09l.24.09A182.49,182.49,0,0,0,63.06,18.45,5.5,5.5,0,0,1,67,22a5,5,0,0,1-1.35,4.69,1.53,1.53,0,0,1-.83.49,1.67,1.67,0,0,1-.42.06"/>
        <path class="cls-1" d="M55.61,30.46c-4.78-.2-7.18-.37-12-.87-3.87-.43-6.65-2.89-6-5.39.27-1.11.36-1.51.59-2.53a157.07,157.07,0,0,0,26,4.36c-1.84,2.73-3.92,4.4-8.62,4.43"/>
        <path class="cls-2" d="M39.33,23.52l-.25,1a1.68,1.68,0,0,0,.34,1.38,6.27,6.27,0,0,0,4.39,2.13c4.75.49,7.08.66,11.83.86,2.65,0,4.28-.6,5.54-1.67A151.37,151.37,0,0,1,39.33,23.52ZM55.61,32h-.06c-4.8-.2-7.28-.38-12.07-.88a9.22,9.22,0,0,1-6.57-3.42,4.73,4.73,0,0,1-.81-3.85c.23-1,.33-1.39.51-2.16l.08-.35a1.53,1.53,0,0,1,1.84-1.15h0a154.82,154.82,0,0,0,25.83,4.32,1.53,1.53,0,0,1,1.12,2.38c-2,3-4.51,5.06-9.87,5.11Z"/>
        <path class="cls-1" d="M66.61,33.43c-.24,4.53,3.21,7.7,9.3,7.7h8.24c6.09,0,9.53-3.17,9.3-7.7a258.16,258.16,0,0,1-26.84,0"/>
        <path class="cls-2" d="M68.25,35a4.79,4.79,0,0,0,1.24,2.39c1.32,1.4,3.61,2.16,6.43,2.16h8.24c2.82,0,5.11-.77,6.43-2.16A4.78,4.78,0,0,0,91.82,35C84,35.4,76,35.4,68.25,35m15.9,7.62H75.91c-3.72,0-6.71-1.08-8.65-3.12a8.14,8.14,0,0,1-2.18-6.19l.08-1.53,1.53.08a258.62,258.62,0,0,0,26.68,0l1.53-.08L95,33.35a8.14,8.14,0,0,1-2.18,6.19c-1.93,2-4.93,3.12-8.65,3.12"/>
        <path class="cls-5" d="M89.68,24.57q-9.64.4-19.29,0l-2,3.49a12.13,12.13,0,0,0-1.75,5.37,258.22,258.22,0,0,0,26.84,0,12.13,12.13,0,0,0-1.75-5.37l-2-3.49Z"/>
        <path class="cls-2" d="M68.38,32c7.7.35,15.61.35,23.32,0a12.23,12.23,0,0,0-1.32-3.16l-1.56-2.69c-5.84.22-11.73.22-17.57,0L69.7,28.83A12.17,12.17,0,0,0,68.38,32M80,35.31c-4.51,0-9.06-.12-13.5-.35L65,34.88l.08-1.53a13.6,13.6,0,0,1,2-6.06L69.52,23l.93,0c6.36.27,12.81.27,19.17,0l.93,0L93,27.3a13.61,13.61,0,0,1,2,6.06l.08,1.53L93.53,35c-4.44.23-9,.35-13.5.35"/>
        <path class="cls-2" d="M89.68,24.57l-2.1-3.64c-4.15-7.19-10.94-7.19-15.09,0l-2.1,3.64q9.64.4,19.29,0"/>
        <path class="cls-2" d="M73,23.13q7,.22,14.1,0l-.83-1.44c-1.72-3-3.93-4.62-6.22-4.62s-4.5,1.64-6.22,4.62Zm7,3.17c-3.22,0-6.49-.07-9.71-.2L67.8,26l3.37-5.83C73.45,16.19,76.6,14,80,14s6.58,2.19,8.87,6.16L92.27,26l-2.53.11C86.52,26.23,83.26,26.3,80,26.3Z"/>
    </g>
</svg>