<svg xmlns="http://www.w3.org/2000/svg" viewBox="0 0 151.43 152.53"><title>packeg_man</title><polygon points="1 151.53 55.79 151.53 55.79 100.05 1 100.05 1 151.53" fill="none" stroke="#939598" stroke-linecap="round" stroke-linejoin="round" stroke-width="2"/><polygon points="23.62 111.71 33.17 111.71 33.17 100.05 23.62 100.05 23.62 111.71" fill="none" stroke="#f47920" stroke-linecap="round" stroke-linejoin="round" stroke-width="2"/><polygon points="12.62 100.05 51.64 100.05 51.64 61.03 12.62 61.03 12.62 100.05" fill="none" stroke="#939598" stroke-linecap="round" stroke-linejoin="round" stroke-width="2"/><polygon points="27.36 72.69 36.9 72.69 36.9 61.03 27.36 61.03 27.36 72.69" fill="none" stroke="#f47920" stroke-linecap="round" stroke-linejoin="round" stroke-width="2"/><polyline points="111.41 63.04 111.41 76.98 150.43 76.98 150.43 37.96 111.41 37.96 111.41 55.45" fill="none" stroke="#939598" stroke-linecap="round" stroke-linejoin="round" stroke-width="2"/><polygon points="126.14 49.63 135.69 49.63 135.69 37.96 126.14 37.96 126.14 49.63" fill="none" stroke="#f47920" stroke-linecap="round" stroke-linejoin="round" stroke-width="2"/><polyline points="80.32 83.8 73.74 113.34 51.64 135.86 60.56 144.27 85.05 119.16 91.91 96.21" fill="none" stroke="#939598" stroke-linecap="round" stroke-linejoin="round" stroke-width="2"/><path d="M99.92,58.28l2.63,23.38,18.82,22.14,5,42.61H113.62l-4.43-38-9-6a94.72,94.72,0,0,1-17-14.4,18.14,18.14,0,0,1-4.78-10.68s-2.25-24.93-2.8-30.6.93-11,6.54-11.83c5.44-.81,10,5,10,5" fill="none" stroke="#939598" stroke-linecap="round" stroke-linejoin="round" stroke-width="2"/><path d="M86,31.85h0A12.59,12.59,0,0,1,73.36,19.31V14.84H98.54v4.43A12.59,12.59,0,0,1,86,31.85Z" fill="none" stroke="#939598" stroke-linecap="round" stroke-linejoin="round" stroke-width="2"/><path d="M84,14.84s-1.55,5.53-10,8.51" fill="none" stroke="#939598" stroke-linecap="round" stroke-linejoin="round" stroke-width="2"/><path d="M90.79,1H81.11a7.75,7.75,0,0,0-7.75,7.75v6.09H98.54V8.75A7.75,7.75,0,0,0,90.79,1Z" fill="none" stroke="#add037" stroke-linecap="round" stroke-linejoin="round" stroke-width="2"/><path d="M73.36,14.84h35" fill="none" stroke="#add037" stroke-linecap="round" stroke-linejoin="round" stroke-width="2"/><path d="M136.45,62.85A4.84,4.84,0,1,1,131.61,58a4.84,4.84,0,0,1,4.84,4.85Z" fill="none" stroke="#939598" stroke-linecap="round" stroke-linejoin="round" stroke-width="2"/><path d="M127.73,60l-18.12-5L92.16,39.85A7.75,7.75,0,0,0,79.39,46.6l3.11,27,11.35-.94L92.06,52.4" fill="none" stroke="#939598" stroke-linecap="round" stroke-linejoin="round" stroke-width="2"/><polyline points="84.01 46.38 104.91 62.02 127.73 65.61" fill="none" stroke="#939598" stroke-linecap="round" stroke-linejoin="round" stroke-width="2"/><path d="M114.21,150.7h23.66" fill="none" stroke="#939598" stroke-linecap="round" stroke-linejoin="round" stroke-width="2"/><polyline points="47.49 139.29 59.63 151.53 66.58 151.53" fill="none" stroke="#939598" stroke-linecap="round" stroke-linejoin="round" stroke-width="2"/><path d="M109.61,55l-2.08,7.47" fill="none" stroke="#939598" stroke-linecap="round" stroke-linejoin="round" stroke-width="2"/></svg>