<svg xmlns="http://www.w3.org/2000/svg" viewBox="0 0 316.22 122.6"><title>rout</title><path d="M76.22,55.09h150a15,15,0,0,1,15,15v3.56a15,15,0,0,1-15,15h-86a15,15,0,0,0-15,15v2.94a15,15,0,0,0,15,15h161" fill="none" stroke="#9b9b9b" stroke-linecap="round" stroke-linejoin="round" stroke-width="2"/><path d="M63.15,21.24v-9.5s12.47.42,18.28,9.5" fill="none" stroke="#9b9b9b" stroke-linecap="round" stroke-linejoin="round" stroke-width="2"/><polyline points="67.3 47.86 63.15 47.86 63.15 21.24 82.03 21.24 96.14 35.34 96.14 40.35" fill="none" stroke="#9b9b9b" stroke-linecap="round" stroke-linejoin="round" stroke-width="2"/><polyline points="67.63 21.24 67.63 29.75 82.43 29.75 86.06 32.33 93.13 32.33" fill="none" stroke="#9b9b9b" stroke-linecap="round" stroke-linejoin="round" stroke-width="2"/><path d="M91.67,40.25H96a1.58,1.58,0,0,1,1.58,1.58v2.75A1.58,1.58,0,0,1,96,46.16H91.67a1.58,1.58,0,0,1-1.58-1.58V41.83A1.58,1.58,0,0,1,91.67,40.25Z" fill="none" stroke="#9b9b9b" stroke-linecap="round" stroke-linejoin="round" stroke-width="2"/><path d="M83.13,48.28a6.83,6.83,0,1,1-6.83-6.83A6.83,6.83,0,0,1,83.13,48.28Z" fill="none" stroke="#9b9b9b" stroke-linecap="round" stroke-linejoin="round" stroke-width="2"/><path d="M34.09,48.28a6.83,6.83,0,1,1-6.83-6.83A6.83,6.83,0,0,1,34.09,48.28Z" fill="none" stroke="#9b9b9b" stroke-linecap="round" stroke-linejoin="round" stroke-width="2"/><path d="M90.09,44.58H82" fill="none" stroke="#9b9b9b" stroke-linecap="round" stroke-linejoin="round" stroke-width="2"/><path d="M9,45.74V41.46" fill="none" stroke="#9b9b9b" stroke-linecap="round" stroke-linejoin="round" stroke-width="2"/><polyline points="17.99 47.86 12.77 47.86 12.77 41.46" fill="none" stroke="#9b9b9b" stroke-linecap="round" stroke-linejoin="round" stroke-width="2"/><path d="M34.09,47.86H63.15" fill="none" stroke="#9b9b9b" stroke-linecap="round" stroke-linejoin="round" stroke-width="2"/><path d="M96.14,35.34h0a4.77,4.77,0,0,0-4.77,4.77v.14" fill="none" stroke="#9b9b9b" stroke-linecap="round" stroke-linejoin="round" stroke-width="2"/><polygon points="1 38.76 60.31 38.76 60.31 1 1 1 1 38.76" fill="none" stroke="#9b9b9b" stroke-linecap="round" stroke-linejoin="round" stroke-width="2"/><path d="M301.22,81.6a14,14,0,0,1,14,14c0,10.5-14,26-14,26s-14-15.5-14-26A14,14,0,0,1,301.22,81.6Zm0,18.9a5.39,5.39,0,1,0-5.39-5.39A5.39,5.39,0,0,0,301.27,100.5Z" fill="none" stroke="#9b9b9b" stroke-linecap="round" stroke-linejoin="round" stroke-width="2"/><circle cx="125.88" cy="105" r="4" fill="none" stroke="#9b9b9b" stroke-linecap="round" stroke-linejoin="round" stroke-width="2"/><circle cx="241.38" cy="72" r="4" fill="none" stroke="#9b9b9b" stroke-linecap="round" stroke-linejoin="round" stroke-width="2"/></svg>