<svg xmlns="http://www.w3.org/2000/svg" width="78" height="76" viewBox="0 0 78 76">
    <g fill="none" fill-rule="evenodd" stroke-linecap="round" stroke-linejoin="round" stroke-width="3">
        <path stroke="#ADD037" d="M59.076 39.663v2.053a6.033 6.033 0 0 1-6.033 6.033h-9.096V44.24"/>
        <path stroke="#F47920" d="M23.338 39.663h-6.285a5.04 5.04 0 0 1-5.04-5.04v-4.545a5.04 5.04 0 0 1 5.04-5.04h5.81M53.087 39.663h6.65a5.04 5.04 0 0 0 5.04-5.04v-4.545a5.04 5.04 0 0 0-5.04-5.04h-5.81s.89 7.312-.84 14.625z"/>
        <path stroke="#F47920" d="M59.856 25.038l-.014-2.243c-.075-11.725-9.6-21.192-21.327-21.192-11.83 0-21.401 9.63-21.326 21.462l.012 1.973"/>
        <path stroke="#9B9B9B" d="M53.087 56.23s4.117 6.752 9.387 6.752c6.193 0 9.486 1.318 11.125 5.192a107.567 107.567 0 0 1 2.314 6.008H28.746M25.227 56.23s-4.118 6.752-9.388 6.752c-6.192 0-9.486 1.318-11.124 5.192a107.568 107.568 0 0 0-2.314 6.008h12.643M50.987 17.218c-2.93-4.525-7.472-6.31-12.623-6.31-8.96 0-16.074 5.401-16.074 21.211 0 15.81 12.912 24.11 16.074 24.11.71 0 1.91-.417 3.344-1.243"/>
    </g>
</svg>
