<svg xmlns="http://www.w3.org/2000/svg" viewBox="0 0 359.92 131.21"><title>total</title><g id="Слой_2" data-name="Слой 2"><g id="Слой_1-2" data-name="Слой 1"><path d="M291,87.63H165.66" fill="none" stroke="#939598" stroke-linecap="round" stroke-linejoin="round" stroke-width="2"/><path d="M291,87.63V33.8h44.28l19.25,32.65v42.84H327.66a24.82,24.82,0,0,0-33-22.91Z" fill="none" stroke="#939598" stroke-linecap="round" stroke-linejoin="round" stroke-width="2"/><polygon points="298.75 61.64 298.75 42.39 330.04 42.39 336.29 52.98 336.29 61.64 298.75 61.64" fill="none" stroke="#add037" stroke-linecap="round" stroke-linejoin="round" stroke-width="2"/><path d="M314.88,70.79H326" fill="none" stroke="#939598" stroke-linecap="round" stroke-linejoin="round" stroke-width="2"/><path d="M327.07,109.29h31.85" fill="none" stroke="#939598" stroke-linecap="round" stroke-linejoin="round" stroke-width="2"/><path d="M320.66,111.21a19,19,0,1,1-19-19,19,19,0,0,1,19,19Z" fill="none" stroke="#939598" stroke-linecap="round" stroke-linejoin="round" stroke-width="2"/><path d="M216.93,111.21a19,19,0,1,1-19-19,19,19,0,0,1,19,19Z" fill="none" stroke="#939598" stroke-linecap="round" stroke-linejoin="round" stroke-width="2"/><path d="M310.72,111.21a9.08,9.08,0,1,1-9.08-9.08h0A9.08,9.08,0,0,1,310.72,111.21Z" fill="none" stroke="#add037" stroke-linecap="round" stroke-linejoin="round" stroke-width="2"/><path d="M207,111.21a9.08,9.08,0,1,1-9.08-9.08,9.08,9.08,0,0,1,9.08,9.08Z" fill="none" stroke="#add037" stroke-linecap="round" stroke-linejoin="round" stroke-width="2"/><polygon points="230.17 118.43 269.4 118.43 269.4 96.05 230.17 96.05 230.17 118.43" fill="none" stroke="#939598" stroke-linecap="round" stroke-linejoin="round" stroke-width="2"/><path d="M173.66,105.2V87.63" fill="none" stroke="#939598" stroke-linecap="round" stroke-linejoin="round" stroke-width="2"/><polygon points="156.29 80.41 283.83 80.41 283.83 1 156.29 1 156.29 80.41" fill="none" stroke="#939598" stroke-linecap="round" stroke-linejoin="round" stroke-width="2"/><polygon points="163.22 73.09 276.91 73.09 276.91 8.32 163.22 8.32 163.22 73.09" fill="none" stroke="#939598" stroke-linecap="round" stroke-linejoin="round" stroke-width="2"/><path d="M222.66,29.4H143.54" fill="none" stroke="#f47920" stroke-linecap="round" stroke-linejoin="round" stroke-width="2"/><path d="M206.11,42.39H124.05" fill="none" stroke="#f47920" stroke-linecap="round" stroke-linejoin="round" stroke-width="2"/><path d="M146.66,55.39h-32" fill="none" stroke="#f47920" stroke-linecap="round" stroke-linejoin="round" stroke-width="2"/><polygon points="1 130.21 35.11 130.21 35.11 98.16 1 98.16 1 130.21" fill="none" stroke="#939598" stroke-linecap="round" stroke-linejoin="round" stroke-width="2"/><polygon points="15.08 105.42 21.03 105.42 21.03 98.16 15.08 98.16 15.08 105.42" fill="none" stroke="#f47920" stroke-linecap="round" stroke-linejoin="round" stroke-width="2"/><polygon points="8.23 98.16 32.52 98.16 32.52 73.87 8.23 73.87 8.23 98.16" fill="none" stroke="#939598" stroke-linecap="round" stroke-linejoin="round" stroke-width="2"/><polygon points="17.41 81.13 23.35 81.13 23.35 73.87 17.41 73.87 17.41 81.13" fill="none" stroke="#f47920" stroke-linecap="round" stroke-linejoin="round" stroke-width="2"/><polyline points="69.73 75.12 69.73 83.8 94.03 83.8 94.03 59.51 69.73 59.51 69.73 70.4" fill="none" stroke="#939598" stroke-linecap="round" stroke-linejoin="round" stroke-width="2"/><polygon points="78.9 66.77 84.85 66.77 84.85 59.51 78.9 59.51 78.9 66.77" fill="none" stroke="#f47920" stroke-linecap="round" stroke-linejoin="round" stroke-width="2"/><polyline points="50.38 88.05 46.28 106.44 32.52 120.45 38.08 125.69 53.32 110.06 57.59 95.77" fill="none" stroke="#939598" stroke-linecap="round" stroke-linejoin="round" stroke-width="2"/><path d="M62.58,72.16l1.64,14.55L75.93,100.5,79,127H71.11l-2.76-23.66-5.6-3.74a59,59,0,0,1-10.58-9,11.29,11.29,0,0,1-3-6.65s-1.4-15.52-1.74-19S48,58.1,51.5,57.59s6.23,3.11,6.23,3.11" fill="none" stroke="#939598" stroke-linecap="round" stroke-linejoin="round" stroke-width="2"/><path d="M53.92,55.71h0A7.84,7.84,0,0,1,46,48V47.9h0V45.12H61.72v2.76A7.84,7.84,0,0,1,53.92,55.71Z" fill="none" stroke="#939598" stroke-linecap="round" stroke-linejoin="round" stroke-width="2"/><path d="M52.67,45.12s-1,3.44-6.23,5.3" fill="none" stroke="#939598" stroke-linecap="round" stroke-linejoin="round" stroke-width="2"/><path d="M56.9,36.5h-6A4.82,4.82,0,0,0,46,41.24s0,.05,0,.08v3.79H61.72V41.32A4.82,4.82,0,0,0,56.9,36.5Z" fill="none" stroke="#add037" stroke-linecap="round" stroke-linejoin="round" stroke-width="2"/><path d="M46,45.12H67.84" fill="none" stroke="#add037" stroke-linecap="round" stroke-linejoin="round" stroke-width="2"/><path d="M85.32,75a3,3,0,1,1-3-3A3,3,0,0,1,85.32,75Z" fill="none" stroke="#939598" stroke-linecap="round" stroke-linejoin="round" stroke-width="2"/><path d="M79.89,73.23,68.61,70.12,57.75,60.69a4.82,4.82,0,0,0-8,4.2L51.74,81.7l7.07-.59L57.69,68.5" fill="none" stroke="#939598" stroke-linecap="round" stroke-linejoin="round" stroke-width="2"/><polyline points="52.68 64.75 65.69 74.49 79.89 76.72" fill="none" stroke="#939598" stroke-linecap="round" stroke-linejoin="round" stroke-width="2"/><path d="M71.48,129.69H86.21" fill="none" stroke="#939598" stroke-linecap="round" stroke-linejoin="round" stroke-width="2"/><polyline points="29.94 122.59 37.5 130.21 41.83 130.21" fill="none" stroke="#939598" stroke-linecap="round" stroke-linejoin="round" stroke-width="2"/><path d="M68.61,70.12l-1.29,4.65" fill="none" stroke="#939598" stroke-linecap="round" stroke-linejoin="round" stroke-width="2"/></g></g></svg>