<svg xmlns="http://www.w3.org/2000/svg" viewBox="0 0 275.69 222"><title>transport</title><g id="Слой_2" data-name="Слой 2"><g id="Слой_1-2" data-name="Слой 1"><circle cx="153" cy="111" r="111" fill="#f7f7f7"/><path d="M198.65,142.88H58.17m140.48,0V82.56h49.62l21.57,36.59v48h-30.2a27.81,27.81,0,0,0-37-25.67l-4,1.4Z" fill="#fff" stroke="#939598" stroke-linecap="round" stroke-linejoin="round" stroke-width="2"/><path d="M207.27,113.76V92.19h35.05l7,11.86v9.71Z" fill="#fff" stroke="#add037" stroke-linecap="round" stroke-linejoin="round" stroke-width="2"/><path d="M225.34,124h12.4M239,167.15h35.69m-42.87,2.16a21.3,21.3,0,1,1-21.3-21.3A21.3,21.3,0,0,1,231.81,169.3Zm-116.22,0A21.3,21.3,0,1,1,94.29,148,21.3,21.3,0,0,1,115.6,169.3Z" fill="#fff" stroke="#939598" stroke-linecap="round" stroke-linejoin="round" stroke-width="2"/><path d="M220.69,169.3a10.18,10.18,0,1,1-10.18-10.18A10.18,10.18,0,0,1,220.69,169.3Zm-116.22,0A10.18,10.18,0,1,1,94.3,159.13,10.18,10.18,0,0,1,104.47,169.3Z" fill="#fff" stroke="#add037" stroke-linecap="round" stroke-linejoin="round" stroke-width="2"/><path d="M130.43,177.39h44V152.32h-44ZM67.06,162.56V142.88m-19.41-8.09H190.56v-89H47.65Z" fill="#fff" stroke="#939598" stroke-linecap="round" stroke-linejoin="round" stroke-width="2"/><rect x="55.41" y="54.01" width="127.38" height="72.57" fill="#fff" stroke="#939598" stroke-linecap="round" stroke-linejoin="round" stroke-width="2"/><path d="M122.07,77.63H33.36m70.11,14.56H11.52m25.35,14.56H1" fill="#fff" stroke="#f47920" stroke-linecap="round" stroke-linejoin="round" stroke-width="2"/></g></g></svg>