<svg xmlns="http://www.w3.org/2000/svg" viewBox="0 0 246.25 131.23"><title>transport_one</title><path d="M177.39,87.63H52" fill="none" stroke="#939598" stroke-linecap="round" stroke-linejoin="round" stroke-width="2"/><path d="M177.39,87.63V33.8h44.28l19.25,32.65v42.84H214a24.82,24.82,0,0,0-33-22.91Z" fill="none" stroke="#939598" stroke-linecap="round" stroke-linejoin="round" stroke-width="2"/><polygon points="185.09 61.64 185.09 42.39 216.38 42.39 222.63 52.98 222.63 61.64 185.09 61.64" fill="none" stroke="#add037" stroke-linecap="round" stroke-linejoin="round" stroke-width="2"/><path d="M201.22,70.79h11.07" fill="none" stroke="#939598" stroke-linecap="round" stroke-linejoin="round" stroke-width="2"/><path d="M213.41,109.29h31.85" fill="none" stroke="#939598" stroke-linecap="round" stroke-linejoin="round" stroke-width="2"/><path d="M207,111.21a19,19,0,1,1-19-19A19,19,0,0,1,207,111.21Z" fill="none" stroke="#939598" stroke-linecap="round" stroke-linejoin="round" stroke-width="2"/><path d="M103.27,111.21a19,19,0,1,1-19-19A19,19,0,0,1,103.27,111.21Z" fill="none" stroke="#939598" stroke-linecap="round" stroke-linejoin="round" stroke-width="2"/><path d="M197.06,111.21a9.08,9.08,0,1,1-9.08-9.08A9.08,9.08,0,0,1,197.06,111.21Z" fill="none" stroke="#add037" stroke-linecap="round" stroke-linejoin="round" stroke-width="2"/><path d="M93.35,111.21a9.08,9.08,0,1,1-9.08-9.08A9.08,9.08,0,0,1,93.35,111.21Z" fill="none" stroke="#add037" stroke-linecap="round" stroke-linejoin="round" stroke-width="2"/><polygon points="116.51 118.43 155.74 118.43 155.74 96.05 116.51 96.05 116.51 118.43" fill="none" stroke="#939598" stroke-linecap="round" stroke-linejoin="round" stroke-width="2"/><path d="M60,105.2V87.63" fill="none" stroke="#939598" stroke-linecap="round" stroke-linejoin="round" stroke-width="2"/><polygon points="42.63 80.41 170.17 80.41 170.17 1 42.63 1 42.63 80.41" fill="none" stroke="#939598" stroke-linecap="round" stroke-linejoin="round" stroke-width="2"/><polygon points="49.56 73.09 163.25 73.09 163.25 8.32 49.56 8.32 49.56 73.09" fill="none" stroke="#939598" stroke-linecap="round" stroke-linejoin="round" stroke-width="2"/><path d="M150.54,8.31V72.59" fill="none" stroke="#939598" stroke-linecap="round" stroke-linejoin="round" stroke-width="2"/><path d="M132.69,8.31V72.59" fill="none" stroke="#939598" stroke-linecap="round" stroke-linejoin="round" stroke-width="2"/><path d="M114.84,8.31V72.59" fill="none" stroke="#939598" stroke-linecap="round" stroke-linejoin="round" stroke-width="2"/><path d="M97,8.31V72.59" fill="none" stroke="#939598" stroke-linecap="round" stroke-linejoin="round" stroke-width="2"/><path d="M79.15,8.31V72.59" fill="none" stroke="#939598" stroke-linecap="round" stroke-linejoin="round" stroke-width="2"/><path d="M61.3,8.31V72.59" fill="none" stroke="#939598" stroke-linecap="round" stroke-linejoin="round" stroke-width="2"/><path d="M109,29.4H29.88" fill="none" stroke="#f47920" stroke-linecap="round" stroke-linejoin="round" stroke-width="2"/><path d="M92.45,42.39H10.39" fill="none" stroke="#f47920" stroke-linecap="round" stroke-linejoin="round" stroke-width="2"/><path d="M33,55.39H1" fill="none" stroke="#f47920" stroke-linecap="round" stroke-linejoin="round" stroke-width="2"/></svg>